<svg xmlns="http://www.w3.org/2000/svg" viewBox="0 0 1214 941"><defs><style>.cls-1{fill:#204056;}.cls-2{fill:none;stroke:#4e768d;stroke-miterlimit:10;}.cls-3{fill:#7a98a9;}.cls-4{fill:#fff;}</style></defs><title>JS_Diagram_XHR_update_1_background</title><g id="Layer_2" data-name="Layer 2"><g id="BG"><rect class="cls-1" width="1214" height="941"/></g><g id="CONTENTS"><polyline class="cls-2" points="485.96 818.34 507.51 818.34 507.51 748.67 485.96 748.67"/><line class="cls-2" x1="506.73" y1="783.51" x2="526.73" y2="783.51"/><polyline class="cls-2" points="792.39 668.84 812.39 668.84 812.39 400.33 792.39 400.33"/><line class="cls-2" x1="812.38" y1="534.59" x2="832.38" y2="534.59"/><path class="cls-3" d="M165.22,120.34h2.12l-7.62,19.43h-2.05Z"/><path class="cls-3" d="M178.42,120.34h2.12l-7.62,19.43h-2.05Z"/><path class="cls-3" d="M196.5,121.35h2.45l3.11,6.43,3.35-6.43h2.23l-4.3,7.82,4.38,8.2h-2.41l-3.44-6.74-3.51,6.74h-2.3l4.55-8.19Z"/><path class="cls-3" d="M212.09,124.15v13.21h-2v-16h2.74l2.29,7.4,2.29-7.4h2.67v16h-1.94V124.15l-1.9,6.27H214Z"/><path class="cls-3" d="M227,135.79h6.19l-.11,1.57H225v-16h2Z"/><path class="cls-3" d="M238.41,137.36h-2v-16h2v6.83h6.18v-6.83h2v16h-2v-7.54h-6.18Z"/><path class="cls-3" d="M254.37,127.08v5.53a9.3,9.3,0,0,0,.11,1.63,2,2,0,0,0,.45,1,1.66,1.66,0,0,0,.88.5,6.52,6.52,0,0,0,1.46.13h2.16l-.11,1.5h-2q-3,0-4-1.12a4.06,4.06,0,0,1-.81-2.35,17.61,17.61,0,0,1-.07-1.77v-5h-3.33l.21-1.5h3.12v-4.06l2-.58v4.64h5v1.5Z"/><path class="cls-3" d="M267.57,127.08v5.53a9.28,9.28,0,0,0,.11,1.63,2,2,0,0,0,.45,1,1.67,1.67,0,0,0,.88.5,6.54,6.54,0,0,0,1.46.13h2.16l-.11,1.5h-2q-3,0-4.05-1.12a4.06,4.06,0,0,1-.8-2.35,17.26,17.26,0,0,1-.08-1.77v-5h-3.33l.21-1.5h3.12v-4.06l2-.58v4.64h5v1.5Z"/><path class="cls-3" d="M281.53,137.63a3.87,3.87,0,0,1-2-.53,3.62,3.62,0,0,1-1.34-1.35v6.13l-2,.21V125.58h2v1.62a4.16,4.16,0,0,1,1.38-1.43,3.54,3.54,0,0,1,1.94-.55,4.27,4.27,0,0,1,4.14,2.41,7.94,7.94,0,0,1,.77,3.63,7.26,7.26,0,0,1-1.62,5.11A4.19,4.19,0,0,1,281.53,137.63Zm-3.38-6.23q0,4.73,3.31,4.73,3,0,3-4.73a6.15,6.15,0,0,0-.8-3.65,2.65,2.65,0,0,0-2.21-1q-2.75,0-3.18,3.18A10.47,10.47,0,0,0,278.15,131.4Z"/><path class="cls-3" d="M296.29,121.64a4.75,4.75,0,0,1,2.43,1.22,3.57,3.57,0,0,1,1,2.7,4,4,0,0,1-1,2.81,4.83,4.83,0,0,1-2.58,1.4,25.06,25.06,0,0,1,2.23,3.39q1,1.77,2.07,4.21h-2.33l-.36-.78-.37-.81-.34-.71q-.27-.57-.39-.78l-.38-.71q-.26-.51-.45-.81l-.57-.93q-.38-.63-1.09-1.61l-1.51,0h-.94v7.11h-2v-16h3.12A18.07,18.07,0,0,1,296.29,121.64Zm.32,6.2a2.55,2.55,0,0,0,1-2.27,2.48,2.48,0,0,0-.31-1.27q-.82-1.39-3.52-1.39h-2v5.6h2.08A5,5,0,0,0,296.61,127.84Z"/><path class="cls-3" d="M305.31,136.81a4.93,4.93,0,0,1-1.83-2.21,7.9,7.9,0,0,1-.6-3.14,8.44,8.44,0,0,1,.55-3.14,5.22,5.22,0,0,1,1.65-2.25,3.86,3.86,0,0,1,2.42-.85,4.1,4.1,0,0,1,3.65,1.71,7.3,7.3,0,0,1,1.16,4.2v.66h-7.46a5.82,5.82,0,0,0,.91,3.08,2.84,2.84,0,0,0,2.53,1.27,9,9,0,0,0,3.15-1.22l.64,1.33a5.15,5.15,0,0,1-3.81,1.4A5.22,5.22,0,0,1,305.31,136.81Zm5.14-6.46q-.21-3.62-2.54-3.62-2.62,0-3,3.62Z"/><path class="cls-3" d="M323.86,127.2v-1.62h2v16.31l-1.93.21,0-6.35a5.13,5.13,0,0,1-1.55,1.39,4.25,4.25,0,0,1-2.12.49,4.71,4.71,0,0,1-2.22-.5,4.05,4.05,0,0,1-1.54-1.4,8,8,0,0,1-1.17-4.43A7.25,7.25,0,0,1,316.5,127a4.86,4.86,0,0,1,5.88-1.22A4.47,4.47,0,0,1,323.86,127.2Zm0,4.2q0-4.67-3.45-4.67-3.19,0-3.19,4.67,0,3.51,1.91,4.46a3.19,3.19,0,0,0,1.39.27,3.1,3.1,0,0,0,1.51-.38,2.71,2.71,0,0,0,1.07-1.05A6.51,6.51,0,0,0,323.86,131.4Z"/><path class="cls-3" d="M338.48,133.54q0,4.09-4.55,4.09t-4.55-4.09v-8h2v8.13a2.4,2.4,0,0,0,.62,1.84,3.66,3.66,0,0,0,4,0,2.41,2.41,0,0,0,.62-1.84v-8.13h2Z"/><path class="cls-3" d="M344.91,136.81a4.93,4.93,0,0,1-1.83-2.21,7.9,7.9,0,0,1-.6-3.14,8.44,8.44,0,0,1,.55-3.14,5.21,5.21,0,0,1,1.65-2.25,3.86,3.86,0,0,1,2.42-.85,4.1,4.1,0,0,1,3.65,1.71,7.3,7.3,0,0,1,1.16,4.2v.66h-7.47a5.82,5.82,0,0,0,.91,3.08,2.84,2.84,0,0,0,2.53,1.27A9,9,0,0,0,351,134.9l.64,1.33a5.16,5.16,0,0,1-3.81,1.4A5.23,5.23,0,0,1,344.91,136.81Zm5.15-6.46q-.22-3.62-2.54-3.62-2.62,0-3,3.62Z"/><path class="cls-3" d="M364,131.86a3.51,3.51,0,0,1,.7,2.36,3,3,0,0,1-1.18,2.48,4.59,4.59,0,0,1-2.95.93,9.55,9.55,0,0,1-2.46-.32,5.22,5.22,0,0,1-1.76-.75l.48-1.41a6.1,6.1,0,0,0,1.43.56,7.54,7.54,0,0,0,2.12.29,3.12,3.12,0,0,0,1.83-.48,1.48,1.48,0,0,0,.68-1.27,2.06,2.06,0,0,0-.34-1.25,2.25,2.25,0,0,0-1.31-.69l-2-.48a3.83,3.83,0,0,1-2.3-1.25,3.51,3.51,0,0,1-.57-2,3.19,3.19,0,0,1,1-2.26,3.9,3.9,0,0,1,2.9-1.05h.14A7.63,7.63,0,0,1,364,126l-.43,1.38a8.07,8.07,0,0,0-3.18-.67,2.67,2.67,0,0,0-1.64.5,1.49,1.49,0,0,0-.64,1.23,1.65,1.65,0,0,0,.32,1.11,2.35,2.35,0,0,0,1.22.59l2.05.5A4.18,4.18,0,0,1,364,131.86Z"/><path class="cls-3" d="M373.18,127.08v5.53a9.28,9.28,0,0,0,.11,1.63,2,2,0,0,0,.45,1,1.67,1.67,0,0,0,.88.5,6.54,6.54,0,0,0,1.46.13h2.16l-.11,1.5h-2q-3,0-4.05-1.12a4.06,4.06,0,0,1-.8-2.35,17.26,17.26,0,0,1-.08-1.77v-5H367.9l.21-1.5h3.12v-4.06l2-.58v4.64h5v1.5Z"/><path class="cls-3" d="M404.59,123.88a4.84,4.84,0,0,0-3.38-1.16,3.74,3.74,0,0,0-2,.56,4.36,4.36,0,0,0-1.46,1.49,8.84,8.84,0,0,0-1.16,4.61,9.37,9.37,0,0,0,1,4.57,3.92,3.92,0,0,0,1.34,1.47,3.29,3.29,0,0,0,1.81.54,4.65,4.65,0,0,0,1.62-.24,9,9,0,0,0,1.41-.69v-4.38h-3.55V129h5.41v6.94a13.73,13.73,0,0,1-2.38,1.25,7.18,7.18,0,0,1-2.62.44A5.53,5.53,0,0,1,398,137a5.41,5.41,0,0,1-2-1.81,10.49,10.49,0,0,1-1.53-5.85,10.92,10.92,0,0,1,.5-3.37,7.74,7.74,0,0,1,1.38-2.61,6.26,6.26,0,0,1,2.09-1.65,5.89,5.89,0,0,1,2.61-.59,6.31,6.31,0,0,1,4.25,1.36Z"/><path class="cls-3" d="M410.87,130v5.78h7.56l-.16,1.57h-9.41v-16h9.22l-.17,1.57h-7v5.39h6.68V130Z"/><path class="cls-3" d="M431.86,121.35v1.57H427.3v14.45h-2V122.91h-4.55v-1.57Z"/><path class="cls-3" d="M166.45,264.59a4.57,4.57,0,0,1-3.21,1,5.69,5.69,0,0,1-2.43-.51,5,5,0,0,1-1.79-1.37,6.66,6.66,0,0,1-1.47-4.35,6.93,6.93,0,0,1,.67-3,5.57,5.57,0,0,1,2-2.27,5.72,5.72,0,0,1,3.23-.87,4.14,4.14,0,0,1,3,1l-.49,1.31a4.9,4.9,0,0,0-2.79-.83,3.14,3.14,0,0,0-2.58,1.33,5.39,5.39,0,0,0-1,3.39,5.3,5.3,0,0,0,1,3.37,3.19,3.19,0,0,0,2.62,1.31,4.74,4.74,0,0,0,2.81-.86Z"/><path class="cls-3" d="M179.33,254.94a7.33,7.33,0,0,1,1.28,4.49,6.91,6.91,0,0,1-1.39,4.48,4.58,4.58,0,0,1-3.76,1.71,5.07,5.07,0,0,1-2.26-.48,4.23,4.23,0,0,1-1.6-1.33,7.41,7.41,0,0,1-1.24-4.45,6.89,6.89,0,0,1,1.37-4.44,4.64,4.64,0,0,1,3.84-1.7A4.39,4.39,0,0,1,179.33,254.94Zm-3.87,9.18a2.77,2.77,0,0,0,2.79-2,6.54,6.54,0,0,0,.4-2.25,14.57,14.57,0,0,0-.09-1.8,4.75,4.75,0,0,0-.93-2.38,2.61,2.61,0,0,0-2.18-.92,2.73,2.73,0,0,0-2.73,2.08,7.11,7.11,0,0,0-.39,2.34,8.22,8.22,0,0,0,.68,3.57A2.47,2.47,0,0,0,175.46,264.13Z"/><path class="cls-3" d="M189.75,253.22q3.66,0,3.66,4.64v7.5h-2V258.1a8.58,8.58,0,0,0-.13-1.78,2.38,2.38,0,0,0-.39-.88,2.13,2.13,0,0,0-1.79-.71,3.2,3.2,0,0,0-2.13.73,2.4,2.4,0,0,0-.87,1.93v8h-2V253.58H186l.11,1.28A4.19,4.19,0,0,1,189.75,253.22Z"/><path class="cls-3" d="M205.56,259.86a3.51,3.51,0,0,1,.7,2.36,3,3,0,0,1-1.18,2.48,4.59,4.59,0,0,1-2.95.93,9.55,9.55,0,0,1-2.46-.32,5.22,5.22,0,0,1-1.76-.75l.48-1.41a6.1,6.1,0,0,0,1.43.56,7.54,7.54,0,0,0,2.12.29,3.12,3.12,0,0,0,1.83-.48,1.48,1.48,0,0,0,.68-1.27,2.06,2.06,0,0,0-.34-1.25,2.25,2.25,0,0,0-1.31-.69l-2-.48a3.83,3.83,0,0,1-2.3-1.25,3.51,3.51,0,0,1-.57-2,3.19,3.19,0,0,1,1-2.26,3.9,3.9,0,0,1,2.9-1.05H202a7.63,7.63,0,0,1,3.64.81l-.43,1.38a8.07,8.07,0,0,0-3.18-.67,2.67,2.67,0,0,0-1.64.5,1.49,1.49,0,0,0-.64,1.23,1.65,1.65,0,0,0,.32,1.11,2.35,2.35,0,0,0,1.22.59l2.05.5A4.18,4.18,0,0,1,205.56,259.86Z"/><path class="cls-3" d="M214.76,255.08v5.53a9.28,9.28,0,0,0,.11,1.63,2,2,0,0,0,.45,1,1.67,1.67,0,0,0,.88.5,6.54,6.54,0,0,0,1.46.13h2.16l-.11,1.5h-2q-3,0-4.05-1.12a4.06,4.06,0,0,1-.8-2.35,17.26,17.26,0,0,1-.08-1.77v-5h-3.33l.21-1.5h3.12v-4.06l2-.58v4.64h5v1.5Z"/><path class="cls-3" d="M236.6,253.58h2.23l2.8,4.53,2.8-4.53h2l-3.62,5.71,3.75,6.07h-2.17l-2.88-4.69-3,4.69h-2.15l3.87-6Z"/><path class="cls-3" d="M259.32,258.25v7.11h-2V258.5a5.28,5.28,0,0,0-.59-3,2.09,2.09,0,0,0-1.78-.78,3,3,0,0,0-2.09.83,2.44,2.44,0,0,0-.89,1.79v8h-2v-16.6l2-.21V255a4.42,4.42,0,0,1,3.69-1.78Q259.32,253.22,259.32,258.25Z"/><path class="cls-3" d="M267.14,265.36h-2V253.58h1.6l.16,2.18a4.9,4.9,0,0,1,1.89-1.89,5.42,5.42,0,0,1,2.65-.64h.95V255h-1.22a4.42,4.42,0,0,0-3,.94,3.53,3.53,0,0,0-1.1,2.83Z"/><path class="cls-3" d="M300.54,255.72H288.08V254.1h12.46Zm0,4.74H288.08v-1.59h12.46Z"/><path class="cls-3" d="M321.77,253.22q3.66,0,3.66,4.64v7.5h-2V258.1a8.58,8.58,0,0,0-.13-1.78,2.38,2.38,0,0,0-.39-.88,2.13,2.13,0,0,0-1.79-.71,3.2,3.2,0,0,0-2.13.73,2.4,2.4,0,0,0-.87,1.93v8h-2V253.58H318l.11,1.28A4.19,4.19,0,0,1,321.77,253.22Z"/><path class="cls-3" d="M331.71,264.81a4.93,4.93,0,0,1-1.83-2.21,7.9,7.9,0,0,1-.6-3.14,8.44,8.44,0,0,1,.55-3.14,5.22,5.22,0,0,1,1.65-2.25,3.86,3.86,0,0,1,2.42-.85,4.1,4.1,0,0,1,3.65,1.71,7.3,7.3,0,0,1,1.16,4.2v.66h-7.46a5.82,5.82,0,0,0,.91,3.08,2.84,2.84,0,0,0,2.53,1.27,9,9,0,0,0,3.15-1.22l.64,1.33a5.15,5.15,0,0,1-3.81,1.4A5.22,5.22,0,0,1,331.71,264.81Zm5.14-6.46q-.21-3.62-2.54-3.62-2.62,0-3,3.62Z"/><path class="cls-3" d="M345.07,265.36h-2l-2.3-11.78h2l1.41,9.1,2-9.1h2.33l1.92,9.07,1.24-9.07h1.85l-2.16,11.78h-2.06l-2-10.24Z"/><path class="cls-3" d="M368.13,249.35h2.45l3.1,6.43,3.35-6.43h2.23l-4.3,7.82,4.38,8.2h-2.41l-3.44-6.74L370,265.36h-2.3l4.55-8.19Z"/><path class="cls-3" d="M383.72,252.15v13.21h-2v-16h2.74l2.29,7.4,2.29-7.4h2.68v16h-1.95V252.15l-1.9,6.27h-2.25Z"/><path class="cls-3" d="M398.59,263.79h6.19l-.11,1.57h-8.09v-16h2Z"/><path class="cls-3" d="M410,265.36h-2v-16h2v6.83h6.18v-6.83h2v16h-2v-7.54H410Z"/><path class="cls-3" d="M426,255.08v5.53a9.28,9.28,0,0,0,.11,1.63,2,2,0,0,0,.45,1,1.67,1.67,0,0,0,.88.5,6.54,6.54,0,0,0,1.46.13h2.16l-.11,1.5h-2q-3,0-4.05-1.12a4.06,4.06,0,0,1-.8-2.35,17.26,17.26,0,0,1-.08-1.77v-5h-3.33l.21-1.5H424v-4.06l2-.58v4.64h5v1.5Z"/><path class="cls-3" d="M439.2,255.08v5.53a9.3,9.3,0,0,0,.11,1.63,2,2,0,0,0,.45,1,1.66,1.66,0,0,0,.88.5,6.52,6.52,0,0,0,1.46.13h2.16l-.11,1.5h-2q-3,0-4-1.12a4.06,4.06,0,0,1-.81-2.35,17.61,17.61,0,0,1-.07-1.77v-5h-3.33l.21-1.5h3.12v-4.06l2-.58v4.64h5v1.5Z"/><path class="cls-3" d="M453.16,265.63a3.86,3.86,0,0,1-2-.53,3.63,3.63,0,0,1-1.34-1.35v6.13l-2,.21V253.58h2v1.62a4.18,4.18,0,0,1,1.38-1.43,3.54,3.54,0,0,1,1.95-.55,4.27,4.27,0,0,1,4.13,2.41,7.94,7.94,0,0,1,.77,3.63,7.27,7.27,0,0,1-1.62,5.11A4.2,4.2,0,0,1,453.16,265.63Zm-3.38-6.23q0,4.73,3.31,4.73,3,0,3-4.73a6.15,6.15,0,0,0-.8-3.65,2.64,2.64,0,0,0-2.21-1q-2.75,0-3.18,3.18A10.45,10.45,0,0,0,449.78,259.4Z"/><path class="cls-3" d="M467.91,249.64a4.76,4.76,0,0,1,2.43,1.22,3.57,3.57,0,0,1,1,2.7,4,4,0,0,1-1,2.81,4.84,4.84,0,0,1-2.58,1.4,24.87,24.87,0,0,1,2.23,3.39q1,1.77,2.07,4.21h-2.33l-.36-.78-.37-.81-.34-.71q-.27-.57-.39-.78l-.38-.71q-.26-.51-.45-.81l-.57-.93q-.38-.63-1.09-1.61l-1.52,0h-.93v7.11h-2v-16h3.12A18.08,18.08,0,0,1,467.91,249.64Zm.32,6.2a2.55,2.55,0,0,0,1-2.27,2.49,2.49,0,0,0-.31-1.27q-.82-1.39-3.52-1.39h-2v5.6h2.08A5,5,0,0,0,468.24,255.84Z"/><path class="cls-3" d="M476.93,264.81a4.93,4.93,0,0,1-1.83-2.21,7.9,7.9,0,0,1-.6-3.14,8.44,8.44,0,0,1,.55-3.14,5.21,5.21,0,0,1,1.65-2.25,3.86,3.86,0,0,1,2.42-.85,4.1,4.1,0,0,1,3.65,1.71,7.3,7.3,0,0,1,1.16,4.2v.66h-7.47a5.82,5.82,0,0,0,.91,3.08,2.84,2.84,0,0,0,2.53,1.27,9,9,0,0,0,3.15-1.22l.64,1.33a5.16,5.16,0,0,1-3.81,1.4A5.23,5.23,0,0,1,476.93,264.81Zm5.15-6.46q-.22-3.62-2.54-3.62-2.62,0-3,3.62Z"/><path class="cls-3" d="M495.49,255.2v-1.62h2v16.31l-1.93.21,0-6.35a5.15,5.15,0,0,1-1.55,1.39,4.25,4.25,0,0,1-2.12.49,4.71,4.71,0,0,1-2.22-.5,4.06,4.06,0,0,1-1.54-1.4,8,8,0,0,1-1.17-4.43,7.26,7.26,0,0,1,1.25-4.35,4.86,4.86,0,0,1,5.88-1.22A4.48,4.48,0,0,1,495.49,255.2Zm0,4.2q0-4.67-3.45-4.67-3.19,0-3.19,4.67,0,3.51,1.91,4.46a3.19,3.19,0,0,0,1.38.27,3.11,3.11,0,0,0,1.52-.38,2.72,2.72,0,0,0,1.07-1.05A6.53,6.53,0,0,0,495.49,259.4Z"/><path class="cls-3" d="M510.1,261.54q0,4.09-4.55,4.09T501,261.54v-8h2v8.13a2.4,2.4,0,0,0,.62,1.84,3.66,3.66,0,0,0,4,0,2.4,2.4,0,0,0,.62-1.84v-8.13h2Z"/><path class="cls-3" d="M516.54,264.81a4.93,4.93,0,0,1-1.83-2.21,7.9,7.9,0,0,1-.6-3.14,8.44,8.44,0,0,1,.55-3.14,5.22,5.22,0,0,1,1.65-2.25,3.86,3.86,0,0,1,2.42-.85,4.1,4.1,0,0,1,3.65,1.71,7.3,7.3,0,0,1,1.16,4.2v.66h-7.46a5.82,5.82,0,0,0,.91,3.08,2.84,2.84,0,0,0,2.53,1.27,9,9,0,0,0,3.15-1.22l.64,1.33a5.15,5.15,0,0,1-3.81,1.4A5.22,5.22,0,0,1,516.54,264.81Zm5.14-6.46q-.21-3.62-2.54-3.62-2.62,0-3,3.62Z"/><path class="cls-3" d="M535.61,259.86a3.51,3.51,0,0,1,.7,2.36,3,3,0,0,1-1.18,2.48,4.59,4.59,0,0,1-2.95.93,9.55,9.55,0,0,1-2.46-.32,5.21,5.21,0,0,1-1.76-.75l.48-1.41a6.1,6.1,0,0,0,1.43.56A7.53,7.53,0,0,0,532,264a3.12,3.12,0,0,0,1.83-.48,1.48,1.48,0,0,0,.68-1.27,2.06,2.06,0,0,0-.34-1.25,2.24,2.24,0,0,0-1.3-.69l-2-.48a3.82,3.82,0,0,1-2.3-1.25,3.5,3.5,0,0,1-.57-2,3.2,3.2,0,0,1,1-2.26,3.9,3.9,0,0,1,2.89-1.05H532a7.62,7.62,0,0,1,3.64.81l-.43,1.38a8.06,8.06,0,0,0-3.18-.67,2.67,2.67,0,0,0-1.64.5,1.49,1.49,0,0,0-.64,1.23,1.65,1.65,0,0,0,.32,1.11,2.35,2.35,0,0,0,1.22.59l2.05.5A4.18,4.18,0,0,1,535.61,259.86Z"/><path class="cls-3" d="M544.81,255.08v5.53a9.3,9.3,0,0,0,.11,1.63,2,2,0,0,0,.45,1,1.66,1.66,0,0,0,.88.5,6.52,6.52,0,0,0,1.46.13h2.16l-.11,1.5h-2q-3,0-4-1.12a4.06,4.06,0,0,1-.81-2.35,17.61,17.61,0,0,1-.07-1.77v-5h-3.33l.21-1.5h3.12v-4.06l2-.58v4.64h5v1.5Z"/><path class="cls-3" d="M559.14,267a16.11,16.11,0,0,1-3.28-9.92,16.69,16.69,0,0,1,3.24-10H561A18.31,18.31,0,0,0,558,257a16.64,16.64,0,0,0,.8,5.27A22,22,0,0,0,561,267Z"/><path class="cls-3" d="M570.47,247a16.69,16.69,0,0,1,3.24,10,16.12,16.12,0,0,1-3.28,9.92h-1.89a22,22,0,0,0,2.27-4.75,16.64,16.64,0,0,0,.8-5.27,18.3,18.3,0,0,0-3.05-9.93Z"/><path class="cls-3" d="M582.56,268.72l.82-6.43h2.92l-1.8,6.43Zm4-12.36H583.3v-3.23h3.21Z"/><path class="cls-3" d="M166.45,314.59a4.57,4.57,0,0,1-3.21,1,5.69,5.69,0,0,1-2.43-.51,5,5,0,0,1-1.79-1.37,6.66,6.66,0,0,1-1.47-4.35,6.93,6.93,0,0,1,.67-3,5.57,5.57,0,0,1,2-2.27,5.72,5.72,0,0,1,3.23-.87,4.14,4.14,0,0,1,3,1l-.49,1.31a4.9,4.9,0,0,0-2.79-.83,3.14,3.14,0,0,0-2.58,1.33,5.39,5.39,0,0,0-1,3.39,5.3,5.3,0,0,0,1,3.37,3.19,3.19,0,0,0,2.62,1.31,4.74,4.74,0,0,0,2.81-.86Z"/><path class="cls-3" d="M179.33,304.94a7.33,7.33,0,0,1,1.28,4.49,6.91,6.91,0,0,1-1.39,4.48,4.58,4.58,0,0,1-3.76,1.71,5.07,5.07,0,0,1-2.26-.48,4.23,4.23,0,0,1-1.6-1.33,7.41,7.41,0,0,1-1.24-4.45,6.89,6.89,0,0,1,1.37-4.44,4.64,4.64,0,0,1,3.84-1.7A4.39,4.39,0,0,1,179.33,304.94Zm-3.87,9.18a2.77,2.77,0,0,0,2.79-2,6.54,6.54,0,0,0,.4-2.25,14.57,14.57,0,0,0-.09-1.8,4.75,4.75,0,0,0-.93-2.38,2.61,2.61,0,0,0-2.18-.92,2.73,2.73,0,0,0-2.73,2.08,7.11,7.11,0,0,0-.39,2.34,8.22,8.22,0,0,0,.68,3.57A2.47,2.47,0,0,0,175.46,314.13Z"/><path class="cls-3" d="M189.75,303.22q3.66,0,3.66,4.64v7.5h-2V308.1a8.58,8.58,0,0,0-.13-1.78,2.38,2.38,0,0,0-.39-.88,2.13,2.13,0,0,0-1.79-.71,3.2,3.2,0,0,0-2.13.73,2.4,2.4,0,0,0-.87,1.93v8h-2V303.58H186l.11,1.28A4.19,4.19,0,0,1,189.75,303.22Z"/><path class="cls-3" d="M205.56,309.86a3.51,3.51,0,0,1,.7,2.36,3,3,0,0,1-1.18,2.48,4.59,4.59,0,0,1-2.95.93,9.55,9.55,0,0,1-2.46-.32,5.22,5.22,0,0,1-1.76-.75l.48-1.41a6.1,6.1,0,0,0,1.43.56,7.54,7.54,0,0,0,2.12.29,3.12,3.12,0,0,0,1.83-.48,1.48,1.48,0,0,0,.68-1.27,2.06,2.06,0,0,0-.34-1.25,2.25,2.25,0,0,0-1.31-.69l-2-.48a3.83,3.83,0,0,1-2.3-1.25,3.51,3.51,0,0,1-.57-2,3.19,3.19,0,0,1,1-2.26,3.9,3.9,0,0,1,2.9-1.05H202a7.63,7.63,0,0,1,3.64.81l-.43,1.38a8.07,8.07,0,0,0-3.18-.67,2.67,2.67,0,0,0-1.64.5,1.49,1.49,0,0,0-.64,1.23,1.65,1.65,0,0,0,.32,1.11,2.35,2.35,0,0,0,1.22.59l2.05.5A4.18,4.18,0,0,1,205.56,309.86Z"/><path class="cls-3" d="M214.76,305.08v5.53a9.28,9.28,0,0,0,.11,1.63,2,2,0,0,0,.45,1,1.67,1.67,0,0,0,.88.5,6.54,6.54,0,0,0,1.46.13h2.16l-.11,1.5h-2q-3,0-4.05-1.12a4.06,4.06,0,0,1-.8-2.35,17.26,17.26,0,0,1-.08-1.77v-5h-3.33l.21-1.5h3.12v-4.06l2-.58v4.64h5v1.5Z"/><path class="cls-3" d="M246.06,311.54q0,4.09-4.55,4.09T237,311.54v-8h2v8.13a2.4,2.4,0,0,0,.62,1.84,3.66,3.66,0,0,0,4,0,2.4,2.4,0,0,0,.62-1.84v-8.13h2Z"/><path class="cls-3" d="M253.94,315.36h-2V303.58h1.6l.16,2.18a4.88,4.88,0,0,1,1.89-1.89,5.4,5.4,0,0,1,2.65-.64h.95V305H258a4.42,4.42,0,0,0-3,.94,3.53,3.53,0,0,0-1.1,2.83Z"/><path class="cls-3" d="M272.47,315.36h-1.56a7.37,7.37,0,0,1-3-.43,2.68,2.68,0,0,1-.82-.57q-.8-.83-.83-3.65V300.05h-3.52v-1.5h5.48v12.06a5.15,5.15,0,0,0,.39,2.62,1.44,1.44,0,0,0,1,.55,10.18,10.18,0,0,0,1.2.07h1.73Z"/><path class="cls-3" d="M300.54,305.72H288.08V304.1h12.46Zm0,4.74H288.08v-1.59h12.46Z"/><path class="cls-3" d="M320.11,305l-.67-6.56h2.78l-.59,6.56Z"/><path class="cls-3" d="M338.53,308.25v7.11h-2V308.5a5.28,5.28,0,0,0-.59-3,2.09,2.09,0,0,0-1.78-.78,3,3,0,0,0-2.09.83,2.44,2.44,0,0,0-.89,1.79v8h-2v-16.6l2-.21V305a4.42,4.42,0,0,1,3.69-1.78Q338.53,303.22,338.53,308.25Z"/><path class="cls-3" d="M346.78,305.08v5.53a9.28,9.28,0,0,0,.11,1.63,2,2,0,0,0,.45,1,1.67,1.67,0,0,0,.88.5,6.54,6.54,0,0,0,1.46.13h2.16l-.11,1.5h-2q-3,0-4.05-1.12a4.06,4.06,0,0,1-.8-2.35,17.26,17.26,0,0,1-.08-1.77v-5H341.5l.21-1.5h3.12v-4.06l2-.58v4.64h5v1.5Z"/><path class="cls-3" d="M360,305.08v5.53a9.3,9.3,0,0,0,.11,1.63,2,2,0,0,0,.45,1,1.66,1.66,0,0,0,.88.5,6.52,6.52,0,0,0,1.46.13H365l-.11,1.5h-2q-3,0-4-1.12a4.06,4.06,0,0,1-.81-2.35,17.61,17.61,0,0,1-.07-1.77v-5H354.7l.21-1.5H358v-4.06l2-.58v4.64h5v1.5Z"/><path class="cls-3" d="M373.95,315.63a3.86,3.86,0,0,1-2-.53,3.63,3.63,0,0,1-1.34-1.35v6.13l-2,.21V303.58h2v1.62a4.18,4.18,0,0,1,1.38-1.43,3.54,3.54,0,0,1,1.95-.55,4.27,4.27,0,0,1,4.13,2.41,7.94,7.94,0,0,1,.77,3.63,7.27,7.27,0,0,1-1.62,5.11A4.2,4.2,0,0,1,373.95,315.63Zm-3.38-6.23q0,4.73,3.31,4.73,3,0,3-4.73a6.15,6.15,0,0,0-.8-3.65,2.64,2.64,0,0,0-2.21-1q-2.75,0-3.18,3.18A10.45,10.45,0,0,0,370.56,309.4Z"/><path class="cls-3" d="M388.59,306.45h-3.23v-3.22h3.23Zm0,7.37h-3.23v-3.23h3.23Z"/><path class="cls-3" d="M402.85,298.34H405l-7.62,19.43H395.3Z"/><path class="cls-3" d="M416.06,298.34h2.12l-7.62,19.43H408.5Z"/><path class="cls-3" d="M428.85,307.24q0-2.52-2.14-2.52a11.82,11.82,0,0,0-2.23.24,9.18,9.18,0,0,0-1.71.45l-.46-1.44a13.24,13.24,0,0,1,4.18-.74,5.08,5.08,0,0,1,3.14.89,3.22,3.22,0,0,1,1.18,2.75v8.5h-1.62l-.26-1.36a5.52,5.52,0,0,1-1.77,1.17,5.3,5.3,0,0,1-2.11.47,3.55,3.55,0,0,1-2.48-.9,3.24,3.24,0,0,1-1-2.54,2.59,2.59,0,0,1,1.29-2.4,5.62,5.62,0,0,1,1.85-.74q1-.2,2.56-.39l1.57-.18Zm0,5.49v-3l-1.6.23a13,13,0,0,0-2.32.47,1.9,1.9,0,0,0-1.44,1.84,1.94,1.94,0,0,0,.52,1.42,1.9,1.9,0,0,0,1.42.53A4.63,4.63,0,0,0,428.85,312.73Z"/><path class="cls-3" d="M440,315.63a3.87,3.87,0,0,1-2-.53,3.62,3.62,0,0,1-1.34-1.35v6.13l-2,.21V303.58h2v1.62a4.16,4.16,0,0,1,1.38-1.43,3.54,3.54,0,0,1,1.94-.55,4.27,4.27,0,0,1,4.14,2.41,7.94,7.94,0,0,1,.77,3.63,7.26,7.26,0,0,1-1.62,5.11A4.19,4.19,0,0,1,440,315.63Zm-3.38-6.23q0,4.73,3.31,4.73,3,0,3-4.73a6.15,6.15,0,0,0-.8-3.65,2.65,2.65,0,0,0-2.21-1q-2.75,0-3.18,3.18A10.47,10.47,0,0,0,436.58,309.4Z"/><path class="cls-3" d="M448.87,305.08v-1.5h5.32v10.28h3.37v1.5H448.5v-1.5h3.74v-8.78Zm3-4.61v-1.06a.83.83,0,0,1,.43-.68,1.42,1.42,0,0,1,1.73,0,.83.83,0,0,1,.44.68v1.06a.83.83,0,0,1-.44.68,1.41,1.41,0,0,1-1.73,0A.83.83,0,0,1,451.91,300.47Z"/><path class="cls-3" d="M470,306.48v1.67h-7.2v-1.67Z"/><path class="cls-3" d="M478.8,305.08v5.53a9.28,9.28,0,0,0,.11,1.63,2,2,0,0,0,.45,1,1.67,1.67,0,0,0,.88.5,6.54,6.54,0,0,0,1.46.13h2.16l-.11,1.5h-2q-3,0-4.05-1.12a4.06,4.06,0,0,1-.8-2.35,17.26,17.26,0,0,1-.08-1.77v-5h-3.33l.21-1.5h3.12v-4.06l2-.58v4.64h5v1.5Z"/><path class="cls-3" d="M496.18,304.94a7.33,7.33,0,0,1,1.28,4.49,6.91,6.91,0,0,1-1.39,4.48,4.58,4.58,0,0,1-3.76,1.71,5.07,5.07,0,0,1-2.26-.48,4.23,4.23,0,0,1-1.6-1.33,7.41,7.41,0,0,1-1.24-4.45,6.89,6.89,0,0,1,1.37-4.44,4.64,4.64,0,0,1,3.84-1.7A4.39,4.39,0,0,1,496.18,304.94Zm-3.87,9.18a2.77,2.77,0,0,0,2.79-2,6.54,6.54,0,0,0,.4-2.25,14.57,14.57,0,0,0-.09-1.8,4.75,4.75,0,0,0-.93-2.38,2.61,2.61,0,0,0-2.18-.92,2.73,2.73,0,0,0-2.73,2.08,7.11,7.11,0,0,0-.39,2.34,8.22,8.22,0,0,0,.68,3.57A2.47,2.47,0,0,0,492.32,314.13Z"/><path class="cls-3" d="M509.61,306.48v1.67h-7.2v-1.67Z"/><path class="cls-3" d="M522.91,314.59a4.56,4.56,0,0,1-3.21,1,5.68,5.68,0,0,1-2.43-.51,5,5,0,0,1-1.79-1.37A6.67,6.67,0,0,1,514,309.4a6.91,6.91,0,0,1,.67-3,5.58,5.58,0,0,1,2-2.27,5.72,5.72,0,0,1,3.23-.87,4.14,4.14,0,0,1,3,1l-.49,1.31a4.91,4.91,0,0,0-2.79-.83,3.14,3.14,0,0,0-2.58,1.33,5.39,5.39,0,0,0-1,3.39,5.3,5.3,0,0,0,1,3.37,3.19,3.19,0,0,0,2.62,1.31,4.73,4.73,0,0,0,2.81-.86Z"/><path class="cls-3" d="M534.47,307.24q0-2.52-2.14-2.52a11.82,11.82,0,0,0-2.23.24,9.18,9.18,0,0,0-1.71.45l-.46-1.44a13.24,13.24,0,0,1,4.18-.74,5.08,5.08,0,0,1,3.14.89,3.22,3.22,0,0,1,1.18,2.75v8.5H534.8l-.26-1.36a5.52,5.52,0,0,1-1.77,1.17,5.3,5.3,0,0,1-2.11.47,3.55,3.55,0,0,1-2.48-.9,3.24,3.24,0,0,1-1-2.54,2.59,2.59,0,0,1,1.29-2.4,5.62,5.62,0,0,1,1.85-.74q1-.2,2.56-.39l1.57-.18Zm0,5.49v-3l-1.6.23a13,13,0,0,0-2.32.47,1.9,1.9,0,0,0-1.44,1.84,1.94,1.94,0,0,0,.52,1.42,1.9,1.9,0,0,0,1.42.53A4.63,4.63,0,0,0,534.47,312.73Z"/><path class="cls-3" d="M549.71,315.36h-1.56a7.38,7.38,0,0,1-3-.43,2.71,2.71,0,0,1-.82-.57q-.79-.83-.83-3.65V300.05H540v-1.5h5.48v12.06a5.15,5.15,0,0,0,.39,2.62,1.44,1.44,0,0,0,1,.55,10.16,10.16,0,0,0,1.2.07h1.73Z"/><path class="cls-3" d="M562.91,315.36h-1.56a7.37,7.37,0,0,1-3-.43,2.68,2.68,0,0,1-.82-.57q-.8-.83-.83-3.65V300.05h-3.52v-1.5h5.48v12.06a5.15,5.15,0,0,0,.39,2.62,1.44,1.44,0,0,0,1,.55,10.18,10.18,0,0,0,1.2.07H563Z"/><path class="cls-3" d="M573.16,315.36h-3.23v-3.23h3.23Z"/><path class="cls-3" d="M588.92,314.59a4.57,4.57,0,0,1-3.21,1,5.69,5.69,0,0,1-2.43-.51,5,5,0,0,1-1.79-1.37A6.66,6.66,0,0,1,580,309.4a6.93,6.93,0,0,1,.67-3,5.57,5.57,0,0,1,2-2.27,5.72,5.72,0,0,1,3.23-.87,4.14,4.14,0,0,1,3,1l-.49,1.31a4.9,4.9,0,0,0-2.79-.83,3.14,3.14,0,0,0-2.58,1.33,5.39,5.39,0,0,0-1,3.39,5.3,5.3,0,0,0,1,3.37,3.19,3.19,0,0,0,2.62,1.31,4.74,4.74,0,0,0,2.81-.86Z"/><path class="cls-3" d="M601.8,304.94a7.33,7.33,0,0,1,1.28,4.49,6.91,6.91,0,0,1-1.39,4.48,4.58,4.58,0,0,1-3.76,1.71,5.07,5.07,0,0,1-2.26-.48,4.23,4.23,0,0,1-1.6-1.33,7.41,7.41,0,0,1-1.24-4.45,6.89,6.89,0,0,1,1.37-4.44,4.64,4.64,0,0,1,3.84-1.7A4.39,4.39,0,0,1,601.8,304.94Zm-3.87,9.18a2.77,2.77,0,0,0,2.79-2,6.54,6.54,0,0,0,.4-2.25A14.57,14.57,0,0,0,601,308a4.75,4.75,0,0,0-.93-2.38,2.61,2.61,0,0,0-2.18-.92,2.73,2.73,0,0,0-2.73,2.08,7.11,7.11,0,0,0-.39,2.34,8.22,8.22,0,0,0,.68,3.57A2.47,2.47,0,0,0,597.93,314.13Z"/><path class="cls-3" d="M611.74,305a2.52,2.52,0,0,1,2.48-1.83q2.25,0,2.54,3.23.05.6.05,1.35v7.55H615V308a7.17,7.17,0,0,0-.28-2.63,1.25,1.25,0,0,0-.51-.6,1.45,1.45,0,0,0-.51-.09,1.39,1.39,0,0,0-1.34,1.05,7.07,7.07,0,0,0-.26,2.28v7.3h-1.64v-7.19a5.58,5.58,0,0,0-.56-3.08,1,1,0,0,0-.83-.37,1.16,1.16,0,0,0-.93.47,3.71,3.71,0,0,0-.72,2.42v7.75h-1.79V303.58h1.56l.12,1.56a3.9,3.9,0,0,1,.86-1.36,1.85,1.85,0,0,1,1.37-.55,2.1,2.1,0,0,1,1.4.48A2.54,2.54,0,0,1,611.74,305Z"/><path class="cls-3" d="M627.29,298.34h2.12l-7.62,19.43h-2.05Z"/><path class="cls-3" d="M635.36,314.81a4.93,4.93,0,0,1-1.83-2.21,7.9,7.9,0,0,1-.6-3.14,8.44,8.44,0,0,1,.55-3.14,5.21,5.21,0,0,1,1.65-2.25,3.86,3.86,0,0,1,2.42-.85,4.1,4.1,0,0,1,3.65,1.71,7.3,7.3,0,0,1,1.16,4.2v.66h-7.47a5.82,5.82,0,0,0,.91,3.08,2.84,2.84,0,0,0,2.53,1.27,9,9,0,0,0,3.15-1.22l.64,1.33a5.16,5.16,0,0,1-3.81,1.4A5.23,5.23,0,0,1,635.36,314.81Zm5.15-6.46q-.22-3.62-2.54-3.62-2.62,0-3,3.62Z"/><path class="cls-3" d="M651.83,303.22q3.66,0,3.66,4.64v7.5h-2V308.1a8.58,8.58,0,0,0-.13-1.78,2.38,2.38,0,0,0-.39-.88,2.13,2.13,0,0,0-1.79-.71,3.2,3.2,0,0,0-2.13.73,2.4,2.4,0,0,0-.87,1.93v8h-2V303.58h1.79l.11,1.28A4.19,4.19,0,0,1,651.83,303.22Z"/><path class="cls-3" d="M666.8,305.2v-6.43l2-.21v16.81h-2v-1.83a3.71,3.71,0,0,1-3.37,2.09,4,4,0,0,1-3.63-1.78,8.2,8.2,0,0,1-1.13-4.48,6.8,6.8,0,0,1,1.65-4.94,4.13,4.13,0,0,1,3.12-1.2,3.87,3.87,0,0,1,2.17.55A3.12,3.12,0,0,1,666.8,305.2Zm0,4.2q0-2.75-.82-3.71a2.88,2.88,0,0,0-2.32-1,2.59,2.59,0,0,0-2.7,2.06,9.7,9.7,0,0,0-.33,2.72q0,4.62,3,4.62T666.8,309.4Z"/><path class="cls-3" d="M677.6,315.63a3.87,3.87,0,0,1-2-.53,3.62,3.62,0,0,1-1.34-1.35v6.13l-2,.21V303.58h2v1.62a4.16,4.16,0,0,1,1.38-1.43,3.54,3.54,0,0,1,1.94-.55,4.27,4.27,0,0,1,4.14,2.41,7.94,7.94,0,0,1,.77,3.63,7.26,7.26,0,0,1-1.62,5.11A4.19,4.19,0,0,1,677.6,315.63Zm-3.38-6.23q0,4.73,3.31,4.73,3,0,3-4.73a6.15,6.15,0,0,0-.8-3.65,2.65,2.65,0,0,0-2.21-1q-2.75,0-3.18,3.18A10.47,10.47,0,0,0,674.21,309.4Z"/><path class="cls-3" d="M694.22,304.94a7.34,7.34,0,0,1,1.28,4.49,6.91,6.91,0,0,1-1.38,4.48,4.58,4.58,0,0,1-3.76,1.71,5.07,5.07,0,0,1-2.26-.48,4.22,4.22,0,0,1-1.6-1.33,7.41,7.41,0,0,1-1.23-4.45,6.89,6.89,0,0,1,1.36-4.44,4.64,4.64,0,0,1,3.84-1.7A4.39,4.39,0,0,1,694.22,304.94Zm-3.87,9.18a2.77,2.77,0,0,0,2.79-2,6.58,6.58,0,0,0,.4-2.25,14.38,14.38,0,0,0-.09-1.8,4.75,4.75,0,0,0-.93-2.38,2.61,2.61,0,0,0-2.17-.92,2.73,2.73,0,0,0-2.73,2.08,7.11,7.11,0,0,0-.39,2.34,8.22,8.22,0,0,0,.68,3.57A2.47,2.47,0,0,0,690.35,314.13Z"/><path class="cls-3" d="M699.72,305.08v-1.5H705v10.28h3.37v1.5h-9.07v-1.5h3.74v-8.78Zm3-4.61v-1.06a.83.83,0,0,1,.44-.68,1.42,1.42,0,0,1,1.73,0,.83.83,0,0,1,.43.68v1.06a.83.83,0,0,1-.43.68,1.41,1.41,0,0,1-1.73,0A.83.83,0,0,1,702.75,300.47Z"/><path class="cls-3" d="M717.84,303.22q3.66,0,3.66,4.64v7.5h-2V308.1a8.58,8.58,0,0,0-.13-1.78,2.38,2.38,0,0,0-.39-.88,2.13,2.13,0,0,0-1.79-.71,3.2,3.2,0,0,0-2.13.73,2.4,2.4,0,0,0-.87,1.93v8h-2V303.58h1.79l.11,1.28A4.19,4.19,0,0,1,717.84,303.22Z"/><path class="cls-3" d="M729.64,305.08v5.53a9.3,9.3,0,0,0,.11,1.63,2,2,0,0,0,.45,1,1.66,1.66,0,0,0,.88.5,6.52,6.52,0,0,0,1.46.13h2.16l-.11,1.5h-2q-3,0-4-1.12a4.06,4.06,0,0,1-.81-2.35,17.61,17.61,0,0,1-.07-1.77v-5h-3.33l.21-1.5h3.12v-4.06l2-.58v4.64h5v1.5Z"/><path class="cls-3" d="M742.58,305l-.67-6.56h2.78L744.1,305Z"/><path class="cls-3" d="M754.19,318.72l.82-6.43h2.92l-1.8,6.43Zm4-12.36h-3.21v-3.23h3.21Z"/><path class="cls-3" d="M157.39,403.58h2.23l2.8,4.53,2.8-4.53h2l-3.62,5.71,3.75,6.07h-2.17l-2.88-4.69-3,4.69h-2.15l3.87-6Z"/><path class="cls-3" d="M180.1,408.25v7.11h-2V408.5a5.28,5.28,0,0,0-.59-3,2.09,2.09,0,0,0-1.78-.78,3,3,0,0,0-2.09.83,2.44,2.44,0,0,0-.89,1.79v8h-2v-16.6l2-.21V405a4.42,4.42,0,0,1,3.69-1.78Q180.1,403.22,180.1,408.25Z"/><path class="cls-3" d="M187.92,415.36h-2V403.58h1.6l.16,2.18a4.9,4.9,0,0,1,1.89-1.89,5.42,5.42,0,0,1,2.65-.64h.95V405H192a4.42,4.42,0,0,0-3,.94,3.53,3.53,0,0,0-1.1,2.83Z"/><path class="cls-3" d="M203.5,415.36h-3.23v-3.23h3.23Z"/><path class="cls-3" d="M214.33,415.36h-2V403.58H214l.16,2.18a4.9,4.9,0,0,1,1.89-1.89,5.42,5.42,0,0,1,2.65-.64h.95V405H218.4a4.42,4.42,0,0,0-3,.94,3.53,3.53,0,0,0-1.1,2.83Z"/><path class="cls-3" d="M226.09,414.81a4.93,4.93,0,0,1-1.83-2.21,7.9,7.9,0,0,1-.6-3.14,8.44,8.44,0,0,1,.55-3.14,5.22,5.22,0,0,1,1.65-2.25,3.86,3.86,0,0,1,2.42-.85,4.1,4.1,0,0,1,3.65,1.71,7.3,7.3,0,0,1,1.16,4.2v.66h-7.46a5.82,5.82,0,0,0,.91,3.08,2.84,2.84,0,0,0,2.53,1.27,9,9,0,0,0,3.15-1.22l.64,1.33a5.15,5.15,0,0,1-3.81,1.4A5.22,5.22,0,0,1,226.09,414.81Zm5.14-6.46q-.21-3.62-2.54-3.62-2.62,0-3,3.62Z"/><path class="cls-3" d="M245.16,409.86a3.51,3.51,0,0,1,.7,2.36,3,3,0,0,1-1.18,2.48,4.59,4.59,0,0,1-2.95.93,9.55,9.55,0,0,1-2.46-.32,5.21,5.21,0,0,1-1.76-.75l.48-1.41a6.1,6.1,0,0,0,1.43.56,7.53,7.53,0,0,0,2.12.29,3.12,3.12,0,0,0,1.83-.48,1.48,1.48,0,0,0,.68-1.27,2.06,2.06,0,0,0-.34-1.25,2.24,2.24,0,0,0-1.3-.69l-2-.48a3.82,3.82,0,0,1-2.3-1.25,3.5,3.5,0,0,1-.57-2,3.2,3.2,0,0,1,1-2.26,3.9,3.9,0,0,1,2.89-1.05h.14a7.62,7.62,0,0,1,3.64.81l-.43,1.38a8.06,8.06,0,0,0-3.18-.67,2.67,2.67,0,0,0-1.64.5,1.49,1.49,0,0,0-.64,1.23,1.65,1.65,0,0,0,.32,1.11,2.35,2.35,0,0,0,1.22.59l2.05.5A4.18,4.18,0,0,1,245.16,409.86Z"/><path class="cls-3" d="M255.13,415.63a3.87,3.87,0,0,1-2-.53,3.62,3.62,0,0,1-1.34-1.35v6.13l-2,.21V403.58h2v1.62a4.16,4.16,0,0,1,1.38-1.43,3.54,3.54,0,0,1,1.94-.55,4.27,4.27,0,0,1,4.14,2.41,7.94,7.94,0,0,1,.77,3.63,7.26,7.26,0,0,1-1.62,5.11A4.19,4.19,0,0,1,255.13,415.63Zm-3.38-6.23q0,4.73,3.31,4.73,3,0,3-4.73a6.15,6.15,0,0,0-.8-3.65,2.65,2.65,0,0,0-2.21-1q-2.75,0-3.18,3.18A10.47,10.47,0,0,0,251.75,409.4Z"/><path class="cls-3" d="M271.75,404.94a7.34,7.34,0,0,1,1.28,4.49,6.91,6.91,0,0,1-1.38,4.48,4.58,4.58,0,0,1-3.76,1.71,5.07,5.07,0,0,1-2.26-.48,4.22,4.22,0,0,1-1.6-1.33,7.41,7.41,0,0,1-1.23-4.45,6.89,6.89,0,0,1,1.36-4.44,4.64,4.64,0,0,1,3.84-1.7A4.39,4.39,0,0,1,271.75,404.94Zm-3.87,9.18a2.77,2.77,0,0,0,2.79-2,6.58,6.58,0,0,0,.4-2.25A14.38,14.38,0,0,0,271,408a4.75,4.75,0,0,0-.93-2.38,2.61,2.61,0,0,0-2.17-.92,2.73,2.73,0,0,0-2.73,2.08,7.11,7.11,0,0,0-.39,2.34,8.22,8.22,0,0,0,.68,3.57A2.47,2.47,0,0,0,267.88,414.13Z"/><path class="cls-3" d="M282.17,403.22q3.66,0,3.66,4.64v7.5h-2V408.1a8.58,8.58,0,0,0-.13-1.78,2.38,2.38,0,0,0-.39-.88,2.13,2.13,0,0,0-1.79-.71,3.2,3.2,0,0,0-2.13.73,2.4,2.4,0,0,0-.87,1.93v8h-2V403.58h1.79l.11,1.28A4.19,4.19,0,0,1,282.17,403.22Z"/><path class="cls-3" d="M298,409.86a3.51,3.51,0,0,1,.7,2.36,3,3,0,0,1-1.18,2.48,4.59,4.59,0,0,1-2.95.93,9.55,9.55,0,0,1-2.46-.32,5.21,5.21,0,0,1-1.76-.75l.48-1.41a6.1,6.1,0,0,0,1.43.56,7.53,7.53,0,0,0,2.12.29,3.12,3.12,0,0,0,1.83-.48,1.48,1.48,0,0,0,.68-1.27,2.06,2.06,0,0,0-.34-1.25,2.24,2.24,0,0,0-1.3-.69l-2-.48a3.82,3.82,0,0,1-2.3-1.25,3.5,3.5,0,0,1-.57-2,3.2,3.2,0,0,1,1-2.26,3.9,3.9,0,0,1,2.89-1.05h.14A7.62,7.62,0,0,1,298,404l-.43,1.38a8.06,8.06,0,0,0-3.18-.67,2.67,2.67,0,0,0-1.64.5,1.49,1.49,0,0,0-.64,1.23,1.65,1.65,0,0,0,.32,1.11,2.35,2.35,0,0,0,1.22.59l2.05.5A4.18,4.18,0,0,1,298,409.86Z"/><path class="cls-3" d="M305.31,414.81a4.93,4.93,0,0,1-1.83-2.21,7.9,7.9,0,0,1-.6-3.14,8.44,8.44,0,0,1,.55-3.14,5.22,5.22,0,0,1,1.65-2.25,3.86,3.86,0,0,1,2.42-.85,4.1,4.1,0,0,1,3.65,1.71,7.3,7.3,0,0,1,1.16,4.2v.66h-7.46a5.82,5.82,0,0,0,.91,3.08,2.84,2.84,0,0,0,2.53,1.27,9,9,0,0,0,3.15-1.22l.64,1.33a5.15,5.15,0,0,1-3.81,1.4A5.22,5.22,0,0,1,305.31,414.81Zm5.14-6.46q-.21-3.62-2.54-3.62-2.62,0-3,3.62Z"/><path class="cls-3" d="M326.24,399.35v1.57h-4.55v14.45h-2V400.91h-4.55v-1.57Z"/><path class="cls-3" d="M334.23,413.13l3.12-9.55h2.14q-3.27,9.22-3.86,10.74l-.8,2.07c-.14.37-.3.74-.48,1.13a5.67,5.67,0,0,1-.63,1.06,3.38,3.38,0,0,1-.69.71,3.53,3.53,0,0,1-1,.43,11.28,11.28,0,0,1-2.62.2l-.23-1.64a12.2,12.2,0,0,0,1.71-.06l.54-.15a1.08,1.08,0,0,0,.39-.19l.32-.29a6.77,6.77,0,0,0,1.11-2.46q-3-7-4.37-10.36l-.46-1.17h2.12Z"/><path class="cls-3" d="M347.54,415.63a3.86,3.86,0,0,1-2-.53,3.63,3.63,0,0,1-1.34-1.35v6.13l-2,.21V403.58h2v1.62a4.18,4.18,0,0,1,1.38-1.43,3.54,3.54,0,0,1,1.95-.55,4.27,4.27,0,0,1,4.13,2.41,7.94,7.94,0,0,1,.77,3.63,7.27,7.27,0,0,1-1.62,5.11A4.2,4.2,0,0,1,347.54,415.63Zm-3.38-6.23q0,4.73,3.31,4.73,3,0,3-4.73a6.15,6.15,0,0,0-.8-3.65,2.64,2.64,0,0,0-2.21-1q-2.75,0-3.18,3.18A10.45,10.45,0,0,0,344.16,409.4Z"/><path class="cls-3" d="M358.11,414.81a4.93,4.93,0,0,1-1.83-2.21,7.9,7.9,0,0,1-.6-3.14,8.44,8.44,0,0,1,.55-3.14,5.22,5.22,0,0,1,1.65-2.25,3.86,3.86,0,0,1,2.42-.85,4.1,4.1,0,0,1,3.65,1.71,7.3,7.3,0,0,1,1.16,4.2v.66h-7.46a5.82,5.82,0,0,0,.91,3.08,2.84,2.84,0,0,0,2.53,1.27,9,9,0,0,0,3.15-1.22l.64,1.33a5.15,5.15,0,0,1-3.81,1.4A5.22,5.22,0,0,1,358.11,414.81Zm5.14-6.46q-.21-3.62-2.54-3.62-2.62,0-3,3.62Z"/><path class="cls-3" d="M393,405.72H380.49V404.1H393Zm0,4.74H380.5v-1.59H393Z"/><path class="cls-3" d="M412.52,405l-.67-6.56h2.78L414,405Z"/><path class="cls-3" d="M424.39,417.73a3.48,3.48,0,0,0,1.39-.18,1.54,1.54,0,0,0,.5-.38,5.35,5.35,0,0,0,.38-2.57v-9.52h-4.2v-1.5h6.15V414a9.79,9.79,0,0,1-.43,3.64,2.24,2.24,0,0,1-1.18,1.18,7.24,7.24,0,0,1-2.6.41h-2.82v-1.5Zm1.92-17.25v-1.06a.83.83,0,0,1,.44-.68,1.42,1.42,0,0,1,1.73,0,.83.83,0,0,1,.43.68v1.06a.83.83,0,0,1-.43.68,1.41,1.41,0,0,1-1.73,0A.83.83,0,0,1,426.32,400.47Z"/><path class="cls-3" d="M443.2,409.86a3.51,3.51,0,0,1,.7,2.36,3,3,0,0,1-1.18,2.48,4.59,4.59,0,0,1-2.95.93,9.55,9.55,0,0,1-2.46-.32,5.22,5.22,0,0,1-1.76-.75l.48-1.41a6.1,6.1,0,0,0,1.43.56,7.54,7.54,0,0,0,2.12.29,3.12,3.12,0,0,0,1.83-.48,1.48,1.48,0,0,0,.68-1.27,2.06,2.06,0,0,0-.34-1.25,2.25,2.25,0,0,0-1.31-.69l-2-.48a3.83,3.83,0,0,1-2.3-1.25,3.51,3.51,0,0,1-.57-2,3.19,3.19,0,0,1,1-2.26,3.9,3.9,0,0,1,2.9-1.05h.14a7.63,7.63,0,0,1,3.64.81l-.43,1.38a8.07,8.07,0,0,0-3.18-.67,2.67,2.67,0,0,0-1.64.5,1.49,1.49,0,0,0-.64,1.23,1.65,1.65,0,0,0,.32,1.11,2.35,2.35,0,0,0,1.22.59l2.05.5A4.18,4.18,0,0,1,443.2,409.86Z"/><path class="cls-3" d="M456.58,404.94a7.34,7.34,0,0,1,1.28,4.49,6.91,6.91,0,0,1-1.38,4.48,4.58,4.58,0,0,1-3.76,1.71,5.07,5.07,0,0,1-2.26-.48,4.22,4.22,0,0,1-1.6-1.33,7.41,7.41,0,0,1-1.23-4.45,6.89,6.89,0,0,1,1.36-4.44,4.64,4.64,0,0,1,3.84-1.7A4.39,4.39,0,0,1,456.58,404.94Zm-3.87,9.18a2.77,2.77,0,0,0,2.79-2,6.58,6.58,0,0,0,.4-2.25,14.38,14.38,0,0,0-.09-1.8,4.75,4.75,0,0,0-.93-2.38,2.61,2.61,0,0,0-2.17-.92,2.73,2.73,0,0,0-2.73,2.08,7.11,7.11,0,0,0-.39,2.34,8.22,8.22,0,0,0,.68,3.57A2.47,2.47,0,0,0,452.71,414.13Z"/><path class="cls-3" d="M467,403.22q3.66,0,3.66,4.64v7.5h-2V408.1a8.58,8.58,0,0,0-.13-1.78,2.38,2.38,0,0,0-.39-.88,2.13,2.13,0,0,0-1.79-.71,3.2,3.2,0,0,0-2.13.73,2.4,2.4,0,0,0-.87,1.93v8h-2V403.58h1.79l.11,1.28A4.19,4.19,0,0,1,467,403.22Z"/><path class="cls-3" d="M478.53,405l-.67-6.56h2.78l-.59,6.56Z"/><path class="cls-3" d="M490.15,418.72l.82-6.43h2.92l-1.8,6.43Zm4-12.36h-3.21v-3.23h3.21Z"/><path class="cls-3" d="M157.39,453.58h2.23l2.8,4.53,2.8-4.53h2l-3.62,5.71,3.75,6.07h-2.17l-2.88-4.69-3,4.69h-2.15l3.87-6Z"/><path class="cls-3" d="M180.1,458.25v7.11h-2V458.5a5.28,5.28,0,0,0-.59-3,2.09,2.09,0,0,0-1.78-.78,3,3,0,0,0-2.09.83,2.44,2.44,0,0,0-.89,1.79v8h-2v-16.6l2-.21V455a4.42,4.42,0,0,1,3.69-1.78Q180.1,453.22,180.1,458.25Z"/><path class="cls-3" d="M187.92,465.36h-2V453.58h1.6l.16,2.18a4.9,4.9,0,0,1,1.89-1.89,5.42,5.42,0,0,1,2.65-.64h.95V455H192a4.42,4.42,0,0,0-3,.94,3.53,3.53,0,0,0-1.1,2.83Z"/><path class="cls-3" d="M203.5,465.36h-3.23v-3.23h3.23Z"/><path class="cls-3" d="M218.94,454.94a7.34,7.34,0,0,1,1.28,4.49,6.91,6.91,0,0,1-1.38,4.48,4.58,4.58,0,0,1-3.76,1.71,5.07,5.07,0,0,1-2.26-.48,4.22,4.22,0,0,1-1.6-1.33,7.41,7.41,0,0,1-1.23-4.45,6.89,6.89,0,0,1,1.36-4.44,4.64,4.64,0,0,1,3.84-1.7A4.39,4.39,0,0,1,218.94,454.94Zm-3.87,9.18a2.77,2.77,0,0,0,2.79-2,6.58,6.58,0,0,0,.4-2.25,14.38,14.38,0,0,0-.09-1.8,4.75,4.75,0,0,0-.93-2.38,2.61,2.61,0,0,0-2.17-.92,2.73,2.73,0,0,0-2.73,2.08,7.11,7.11,0,0,0-.39,2.34,8.22,8.22,0,0,0,.68,3.57A2.47,2.47,0,0,0,215.07,464.13Z"/><path class="cls-3" d="M229.36,453.22q3.66,0,3.66,4.64v7.5h-2V458.1a8.58,8.58,0,0,0-.13-1.78,2.38,2.38,0,0,0-.39-.88,2.13,2.13,0,0,0-1.79-.71,3.2,3.2,0,0,0-2.13.73,2.4,2.4,0,0,0-.87,1.93v8h-2V453.58h1.79l.11,1.28A4.19,4.19,0,0,1,229.36,453.22Z"/><path class="cls-3" d="M240.73,465.36h-2V453.58h1.6l.16,2.18a4.9,4.9,0,0,1,1.89-1.89,5.42,5.42,0,0,1,2.65-.64H246V455h-1.22a4.42,4.42,0,0,0-3,.94,3.53,3.53,0,0,0-1.1,2.83Z"/><path class="cls-3" d="M252.5,464.81a4.93,4.93,0,0,1-1.83-2.21,7.9,7.9,0,0,1-.6-3.14,8.44,8.44,0,0,1,.55-3.14,5.22,5.22,0,0,1,1.65-2.25,3.86,3.86,0,0,1,2.42-.85,4.1,4.1,0,0,1,3.65,1.71,7.3,7.3,0,0,1,1.16,4.2v.66H252a5.82,5.82,0,0,0,.91,3.08,2.84,2.84,0,0,0,2.53,1.27,9,9,0,0,0,3.15-1.22l.64,1.33a5.15,5.15,0,0,1-3.81,1.4A5.22,5.22,0,0,1,252.5,464.81Zm5.14-6.46q-.21-3.62-2.54-3.62-2.62,0-3,3.62Z"/><path class="cls-3" d="M270.42,457.24q0-2.52-2.14-2.52a11.82,11.82,0,0,0-2.23.24,9.18,9.18,0,0,0-1.71.45l-.46-1.44a13.24,13.24,0,0,1,4.18-.74,5.08,5.08,0,0,1,3.14.89,3.22,3.22,0,0,1,1.18,2.75v8.5h-1.62L270.5,464a5.52,5.52,0,0,1-1.77,1.17,5.3,5.3,0,0,1-2.11.47,3.55,3.55,0,0,1-2.48-.9,3.24,3.24,0,0,1-1-2.54,2.59,2.59,0,0,1,1.29-2.4,5.62,5.62,0,0,1,1.85-.74q1-.2,2.56-.39l1.57-.18Zm0,5.49v-3l-1.6.23a13,13,0,0,0-2.32.47,1.9,1.9,0,0,0-1.44,1.84,1.94,1.94,0,0,0,.52,1.42,1.9,1.9,0,0,0,1.42.53A4.63,4.63,0,0,0,270.42,462.73Z"/><path class="cls-3" d="M283.94,455.2v-6.43l2-.21v16.81h-2v-1.83a3.71,3.71,0,0,1-3.37,2.09,4,4,0,0,1-3.62-1.78,8.2,8.2,0,0,1-1.13-4.48,6.8,6.8,0,0,1,1.65-4.94,4.13,4.13,0,0,1,3.12-1.2,3.87,3.87,0,0,1,2.16.55A3.11,3.11,0,0,1,283.94,455.2Zm0,4.2q0-2.75-.82-3.71a2.88,2.88,0,0,0-2.32-1,2.59,2.59,0,0,0-2.7,2.06,9.66,9.66,0,0,0-.33,2.72q0,4.62,3,4.62T283.94,459.4Z"/><path class="cls-3" d="M294.63,463.13l3.12-9.55h2.14q-3.27,9.22-3.86,10.74l-.81,2.07c-.14.37-.3.74-.48,1.13a5.62,5.62,0,0,1-.63,1.06,3.38,3.38,0,0,1-.69.71,3.53,3.53,0,0,1-1,.43,11.28,11.28,0,0,1-2.62.2l-.22-1.64a12.19,12.19,0,0,0,1.71-.06l.54-.15a1.08,1.08,0,0,0,.39-.19l.32-.29a6.82,6.82,0,0,0,1.11-2.46q-3-7-4.37-10.36l-.46-1.17h2.12Z"/><path class="cls-3" d="M311.18,459.86a3.51,3.51,0,0,1,.7,2.36,3,3,0,0,1-1.18,2.48,4.59,4.59,0,0,1-2.95.93,9.55,9.55,0,0,1-2.46-.32,5.22,5.22,0,0,1-1.76-.75l.48-1.41a6.1,6.1,0,0,0,1.43.56,7.54,7.54,0,0,0,2.12.29,3.12,3.12,0,0,0,1.83-.48,1.48,1.48,0,0,0,.68-1.27,2.06,2.06,0,0,0-.34-1.25,2.25,2.25,0,0,0-1.31-.69l-2-.48a3.83,3.83,0,0,1-2.3-1.25,3.51,3.51,0,0,1-.57-2,3.19,3.19,0,0,1,1-2.26,3.9,3.9,0,0,1,2.9-1.05h.14a7.63,7.63,0,0,1,3.64.81l-.43,1.38a8.07,8.07,0,0,0-3.18-.67,2.67,2.67,0,0,0-1.64.5,1.49,1.49,0,0,0-.64,1.23,1.65,1.65,0,0,0,.32,1.11,2.35,2.35,0,0,0,1.22.59l2.05.5A4.18,4.18,0,0,1,311.18,459.86Z"/><path class="cls-3" d="M320.38,455.08v5.53a9.28,9.28,0,0,0,.11,1.63,2,2,0,0,0,.45,1,1.67,1.67,0,0,0,.88.5,6.54,6.54,0,0,0,1.46.13h2.16l-.11,1.5h-2q-3,0-4.05-1.12a4.06,4.06,0,0,1-.8-2.35,17.26,17.26,0,0,1-.08-1.77v-5h-3.33l.21-1.5h3.12v-4.06l2-.58v4.64h5v1.5Z"/><path class="cls-3" d="M336.44,457.24q0-2.52-2.14-2.52a11.82,11.82,0,0,0-2.23.24,9.14,9.14,0,0,0-1.71.45l-.46-1.44a13.24,13.24,0,0,1,4.18-.74,5.08,5.08,0,0,1,3.14.89,3.22,3.22,0,0,1,1.18,2.75v8.5h-1.62l-.26-1.36a5.51,5.51,0,0,1-1.77,1.17,5.29,5.29,0,0,1-2.11.47,3.55,3.55,0,0,1-2.48-.9,3.25,3.25,0,0,1-1-2.54,2.59,2.59,0,0,1,1.29-2.4,5.63,5.63,0,0,1,1.85-.74q1-.2,2.56-.39l1.57-.18Zm0,5.49v-3l-1.6.23a13,13,0,0,0-2.32.47,1.91,1.91,0,0,0-1.44,1.84,1.94,1.94,0,0,0,.52,1.42,1.9,1.9,0,0,0,1.42.53A4.63,4.63,0,0,0,336.44,462.73Z"/><path class="cls-3" d="M346.78,455.08v5.53a9.28,9.28,0,0,0,.11,1.63,2,2,0,0,0,.45,1,1.67,1.67,0,0,0,.88.5,6.54,6.54,0,0,0,1.46.13h2.16l-.11,1.5h-2q-3,0-4.05-1.12a4.06,4.06,0,0,1-.8-2.35,17.26,17.26,0,0,1-.08-1.77v-5H341.5l.21-1.5h3.12v-4.06l2-.58v4.64h5v1.5Z"/><path class="cls-3" d="M358.11,464.81a4.93,4.93,0,0,1-1.83-2.21,7.9,7.9,0,0,1-.6-3.14,8.44,8.44,0,0,1,.55-3.14,5.22,5.22,0,0,1,1.65-2.25,3.86,3.86,0,0,1,2.42-.85,4.1,4.1,0,0,1,3.65,1.71,7.3,7.3,0,0,1,1.16,4.2v.66h-7.46a5.82,5.82,0,0,0,.91,3.08,2.84,2.84,0,0,0,2.53,1.27,9,9,0,0,0,3.15-1.22l.64,1.33a5.15,5.15,0,0,1-3.81,1.4A5.22,5.22,0,0,1,358.11,464.81Zm5.14-6.46q-.21-3.62-2.54-3.62-2.62,0-3,3.62Z"/><path class="cls-3" d="M377.69,464.59a4.57,4.57,0,0,1-3.21,1,5.69,5.69,0,0,1-2.43-.51,5,5,0,0,1-1.79-1.37,6.66,6.66,0,0,1-1.47-4.35,6.93,6.93,0,0,1,.67-3,5.57,5.57,0,0,1,2-2.27,5.72,5.72,0,0,1,3.23-.87,4.14,4.14,0,0,1,3,1l-.49,1.31a4.9,4.9,0,0,0-2.79-.83,3.14,3.14,0,0,0-2.58,1.33,5.39,5.39,0,0,0-1,3.39,5.3,5.3,0,0,0,1,3.37,3.19,3.19,0,0,0,2.62,1.31,4.74,4.74,0,0,0,2.81-.86Z"/><path class="cls-3" d="M391.34,458.25v7.11h-2V458.5a5.28,5.28,0,0,0-.59-3,2.09,2.09,0,0,0-1.78-.78,3,3,0,0,0-2.09.83,2.44,2.44,0,0,0-.89,1.79v8h-2v-16.6l2-.21V455a4.42,4.42,0,0,1,3.69-1.78Q391.34,453.22,391.34,458.25Z"/><path class="cls-3" d="M402.45,457.24q0-2.52-2.14-2.52a11.82,11.82,0,0,0-2.23.24,9.18,9.18,0,0,0-1.71.45l-.46-1.44a13.24,13.24,0,0,1,4.18-.74,5.08,5.08,0,0,1,3.14.89,3.22,3.22,0,0,1,1.18,2.75v8.5h-1.62l-.26-1.36a5.52,5.52,0,0,1-1.77,1.17,5.3,5.3,0,0,1-2.11.47,3.55,3.55,0,0,1-2.48-.9,3.24,3.24,0,0,1-1-2.54,2.59,2.59,0,0,1,1.29-2.4,5.62,5.62,0,0,1,1.85-.74q1-.2,2.56-.39l1.57-.18Zm0,5.49v-3l-1.6.23a13,13,0,0,0-2.32.47,1.9,1.9,0,0,0-1.44,1.84,1.94,1.94,0,0,0,.52,1.42,1.9,1.9,0,0,0,1.42.53A4.63,4.63,0,0,0,402.45,462.73Z"/><path class="cls-3" d="M414.19,453.22q3.66,0,3.66,4.64v7.5h-2V458.1a8.58,8.58,0,0,0-.13-1.78,2.38,2.38,0,0,0-.39-.88,2.13,2.13,0,0,0-1.79-.71,3.2,3.2,0,0,0-2.13.73,2.4,2.4,0,0,0-.87,1.93v8h-2V453.58h1.79l.11,1.28A4.19,4.19,0,0,1,414.19,453.22Z"/><path class="cls-3" d="M429.27,463.11A3.59,3.59,0,0,1,428,464.7a3.45,3.45,0,0,1-2.06.67,4.18,4.18,0,0,1-3.54-1.74,6.86,6.86,0,0,1-1.3-4.24,6.75,6.75,0,0,1,1.68-5,4.47,4.47,0,0,1,3.25-1.16,3.66,3.66,0,0,1,3.26,2l.06-1.6h2q-.1,2.63-.1,7v3.16q0,3.8-1.65,5.18a6.66,6.66,0,0,1-3.59,1.27,24.27,24.27,0,0,1-2.79.14l-.16-1.5a14.16,14.16,0,0,0,3.36-.28,4.63,4.63,0,0,0,1.48-.62,3.09,3.09,0,0,0,.79-.89,6.24,6.24,0,0,0,.61-3.13Zm-.93-7.45a2.39,2.39,0,0,0-.9-.68,3.13,3.13,0,0,0-1.29-.25,3.06,3.06,0,0,0-1.29.26,2.6,2.6,0,0,0-1.41,1.62,7.22,7.22,0,0,0-.39,2.33,11.52,11.52,0,0,0,.1,1.75,4.17,4.17,0,0,0,.9,2.1,2.48,2.48,0,0,0,2,.84,2.77,2.77,0,0,0,2.8-1.85,5.54,5.54,0,0,0,.41-2.09,14.54,14.54,0,0,0-.08-1.72,6.15,6.15,0,0,0-.3-1.26A3.5,3.5,0,0,0,428.34,455.66Z"/><path class="cls-3" d="M437.33,464.81a4.93,4.93,0,0,1-1.83-2.21,7.9,7.9,0,0,1-.6-3.14,8.44,8.44,0,0,1,.55-3.14,5.22,5.22,0,0,1,1.65-2.25,3.86,3.86,0,0,1,2.42-.85,4.1,4.1,0,0,1,3.65,1.71,7.3,7.3,0,0,1,1.16,4.2v.66h-7.46a5.82,5.82,0,0,0,.91,3.08,2.84,2.84,0,0,0,2.53,1.27,9,9,0,0,0,3.15-1.22l.64,1.33a5.15,5.15,0,0,1-3.81,1.4A5.22,5.22,0,0,1,437.33,464.81Zm5.14-6.46q-.21-3.62-2.54-3.62-2.62,0-3,3.62Z"/><path class="cls-3" d="M472.16,455.72H459.7V454.1h12.46Zm0,4.74H459.71v-1.59h12.46Z"/><path class="cls-3" d="M493.13,467a16.12,16.12,0,0,1-3.28-9.92,16.68,16.68,0,0,1,3.24-10H495a18.29,18.29,0,0,0-3.05,9.93,16.61,16.61,0,0,0,.8,5.27A21.86,21.86,0,0,0,495,467Z"/><path class="cls-3" d="M504.45,447a16.69,16.69,0,0,1,3.24,10,16.12,16.12,0,0,1-3.28,9.92h-1.89a22,22,0,0,0,2.27-4.75,16.64,16.64,0,0,0,.8-5.27,18.31,18.31,0,0,0-3.05-9.93Z"/><path class="cls-3" d="M538.17,455.72H525.71V454.1h12.46Zm0,4.74H525.72v-1.59h12.46Z"/><path class="cls-3" d="M540.25,453v-1.78l11,5.66v1l-11,5.22v-1.79l8.39-4Z"/><path class="cls-3" d="M570.48,460.47a2.36,2.36,0,0,0-.86-2,3.88,3.88,0,0,0-2.24-.78V456.3a3.89,3.89,0,0,0,2.24-.77,2.35,2.35,0,0,0,.86-1.94v-2.5a4.49,4.49,0,0,1,.88-3.08,3.84,3.84,0,0,1,2.95-1h2.48v1.46h-2.45a1.34,1.34,0,0,0-1.09.46,3.73,3.73,0,0,0-.38,2.11v2.59a3,3,0,0,1-1,2.52,6.63,6.63,0,0,1-1.61.84,4.49,4.49,0,0,1,2.17,1.41,3.57,3.57,0,0,1,.47,1.94V463a3.91,3.91,0,0,0,.37,2.1,1.31,1.31,0,0,0,1.11.48h2.45V467H574.3a3.84,3.84,0,0,1-2.95-1,4.48,4.48,0,0,1-.88-3.08Z"/><path class="cls-3" d="M184.83,505.08v-1.5h5.32v10.28h3.37v1.5h-9.07v-1.5h3.74v-8.78Zm3-4.61v-1.06a.83.83,0,0,1,.43-.68,1.42,1.42,0,0,1,1.73,0,.83.83,0,0,1,.44.68v1.06a.83.83,0,0,1-.44.68,1.41,1.41,0,0,1-1.73,0A.83.83,0,0,1,187.87,500.47Z"/><path class="cls-3" d="M202.55,515.36h-2V505.08h-3.08v-1.5h3.08a12.7,12.7,0,0,1,.17-2.74,3.43,3.43,0,0,1,.88-1.6q1-.9,3.79-.9h1.14l-.11,1.5h-1.07a9,9,0,0,0-1.31.08,2.14,2.14,0,0,0-.86.32q-.68.43-.68,1.91v1.43h4v1.5h-4Z"/><path class="cls-3" d="M229.09,517a16.12,16.12,0,0,1-3.28-9.92,16.68,16.68,0,0,1,3.24-10h1.89A18.29,18.29,0,0,0,227.9,507a16.61,16.61,0,0,0,.8,5.27A21.86,21.86,0,0,0,231,517Z"/><path class="cls-3" d="M236.6,503.58h2.23l2.8,4.53,2.8-4.53h2l-3.62,5.71,3.75,6.07h-2.17l-2.88-4.69-3,4.69h-2.15l3.87-6Z"/><path class="cls-3" d="M259.32,508.25v7.11h-2V508.5a5.28,5.28,0,0,0-.59-3,2.09,2.09,0,0,0-1.78-.78,3,3,0,0,0-2.09.83,2.44,2.44,0,0,0-.89,1.79v8h-2v-16.6l2-.21V505a4.42,4.42,0,0,1,3.69-1.78Q259.32,503.22,259.32,508.25Z"/><path class="cls-3" d="M267.14,515.36h-2V503.58h1.6l.16,2.18a4.9,4.9,0,0,1,1.89-1.89,5.42,5.42,0,0,1,2.65-.64h.95V505h-1.22a4.42,4.42,0,0,0-3,.94,3.53,3.53,0,0,0-1.1,2.83Z"/><path class="cls-3" d="M282.71,515.36h-3.23v-3.23h3.23Z"/><path class="cls-3" d="M293.54,515.36h-2V503.58h1.6l.16,2.18a4.9,4.9,0,0,1,1.89-1.89,5.42,5.42,0,0,1,2.65-.64h.95V505h-1.22a4.42,4.42,0,0,0-3,.94,3.53,3.53,0,0,0-1.1,2.83Z"/><path class="cls-3" d="M305.31,514.81a4.93,4.93,0,0,1-1.83-2.21,7.9,7.9,0,0,1-.6-3.14,8.44,8.44,0,0,1,.55-3.14,5.22,5.22,0,0,1,1.65-2.25,3.86,3.86,0,0,1,2.42-.85,4.1,4.1,0,0,1,3.65,1.71,7.3,7.3,0,0,1,1.16,4.2v.66h-7.46a5.82,5.82,0,0,0,.91,3.08,2.84,2.84,0,0,0,2.53,1.27,9,9,0,0,0,3.15-1.22l.64,1.33a5.15,5.15,0,0,1-3.81,1.4A5.22,5.22,0,0,1,305.31,514.81Zm5.14-6.46q-.21-3.62-2.54-3.62-2.62,0-3,3.62Z"/><path class="cls-3" d="M323.23,507.24q0-2.52-2.14-2.52a11.82,11.82,0,0,0-2.23.24,9.18,9.18,0,0,0-1.71.45l-.46-1.44a13.24,13.24,0,0,1,4.18-.74,5.08,5.08,0,0,1,3.14.89,3.22,3.22,0,0,1,1.18,2.75v8.5h-1.62l-.26-1.36a5.52,5.52,0,0,1-1.77,1.17,5.3,5.3,0,0,1-2.11.47,3.55,3.55,0,0,1-2.48-.9,3.24,3.24,0,0,1-1-2.54,2.59,2.59,0,0,1,1.29-2.4,5.62,5.62,0,0,1,1.85-.74q1-.2,2.56-.39l1.57-.18Zm0,5.49v-3l-1.6.23a13,13,0,0,0-2.32.47,1.9,1.9,0,0,0-1.44,1.84,1.94,1.94,0,0,0,.52,1.42,1.9,1.9,0,0,0,1.42.53A4.63,4.63,0,0,0,323.23,512.73Z"/><path class="cls-3" d="M336.75,505.2v-6.43l2-.21v16.81h-2v-1.83a3.71,3.71,0,0,1-3.37,2.09,4,4,0,0,1-3.62-1.78,8.2,8.2,0,0,1-1.13-4.48,6.8,6.8,0,0,1,1.65-4.94,4.13,4.13,0,0,1,3.12-1.2,3.87,3.87,0,0,1,2.16.55A3.11,3.11,0,0,1,336.75,505.2Zm0,4.2q0-2.75-.82-3.71a2.88,2.88,0,0,0-2.32-1,2.59,2.59,0,0,0-2.7,2.06,9.66,9.66,0,0,0-.33,2.72q0,4.62,3,4.62T336.75,509.4Z"/><path class="cls-3" d="M347.44,513.13l3.12-9.55h2.14q-3.27,9.22-3.86,10.74l-.81,2.07c-.14.37-.3.74-.48,1.13a5.62,5.62,0,0,1-.63,1.06,3.38,3.38,0,0,1-.69.71,3.53,3.53,0,0,1-1,.43,11.28,11.28,0,0,1-2.62.2l-.22-1.64a12.19,12.19,0,0,0,1.71-.06l.54-.15a1.08,1.08,0,0,0,.39-.19l.32-.29a6.82,6.82,0,0,0,1.11-2.46q-3-7-4.37-10.36l-.46-1.17h2.12Z"/><path class="cls-3" d="M356,512.56a6.26,6.26,0,0,0,4.09,1.41,2.51,2.51,0,0,0,2-.79,3,3,0,0,0,.7-2,2.43,2.43,0,0,0-.73-1.91,6,6,0,0,0-1.76-1.07l-.64-.26a13.18,13.18,0,0,1-2.53-1.24,4.94,4.94,0,0,1-1-.92,3.87,3.87,0,0,1-.76-2.44,3.8,3.8,0,0,1,1.37-3.12,5.38,5.38,0,0,1,3.51-1.11,6.67,6.67,0,0,1,4.22,1.19l-.75,1.55a5.32,5.32,0,0,0-3.36-1.08,2.84,2.84,0,0,0-2,.69,2.51,2.51,0,0,0-.75,1.93,2.33,2.33,0,0,0,1.36,2,13.2,13.2,0,0,0,1.56.7,21,21,0,0,1,2.09,1,5.2,5.2,0,0,1,1.76,1.48,3.84,3.84,0,0,1,.71,2.38,4.5,4.5,0,0,1-1.34,3.52,5.25,5.25,0,0,1-3.66,1.21,8.5,8.5,0,0,1-4.81-1.28Z"/><path class="cls-3" d="M373.18,505.08v5.53a9.28,9.28,0,0,0,.11,1.63,2,2,0,0,0,.45,1,1.67,1.67,0,0,0,.88.5,6.54,6.54,0,0,0,1.46.13h2.16l-.11,1.5h-2q-3,0-4.05-1.12a4.06,4.06,0,0,1-.8-2.35,17.26,17.26,0,0,1-.08-1.77v-5H367.9l.21-1.5h3.12v-4.06l2-.58v4.64h5v1.5Z"/><path class="cls-3" d="M389.25,507.24q0-2.52-2.14-2.52a11.82,11.82,0,0,0-2.23.24,9.14,9.14,0,0,0-1.71.45L382.7,504a13.24,13.24,0,0,1,4.18-.74,5.08,5.08,0,0,1,3.14.89,3.22,3.22,0,0,1,1.18,2.75v8.5h-1.62l-.26-1.36a5.51,5.51,0,0,1-1.77,1.17,5.29,5.29,0,0,1-2.11.47,3.55,3.55,0,0,1-2.48-.9,3.25,3.25,0,0,1-1-2.54,2.59,2.59,0,0,1,1.29-2.4,5.63,5.63,0,0,1,1.85-.74q1-.2,2.56-.39l1.57-.18Zm0,5.49v-3l-1.6.23a13,13,0,0,0-2.32.47,1.91,1.91,0,0,0-1.44,1.84,1.94,1.94,0,0,0,.52,1.42,1.9,1.9,0,0,0,1.42.53A4.63,4.63,0,0,0,389.25,512.73Z"/><path class="cls-3" d="M399.59,505.08v5.53a9.28,9.28,0,0,0,.11,1.63,2,2,0,0,0,.45,1,1.67,1.67,0,0,0,.88.5,6.54,6.54,0,0,0,1.46.13h2.16l-.11,1.5h-2q-3,0-4.05-1.12a4.06,4.06,0,0,1-.8-2.35,17.26,17.26,0,0,1-.08-1.77v-5H394.3l.21-1.5h3.12v-4.06l2-.58v4.64h5v1.5Z"/><path class="cls-3" d="M410.92,514.81a4.93,4.93,0,0,1-1.83-2.21,7.9,7.9,0,0,1-.6-3.14,8.44,8.44,0,0,1,.55-3.14,5.22,5.22,0,0,1,1.65-2.25,3.86,3.86,0,0,1,2.42-.85,4.1,4.1,0,0,1,3.65,1.71,7.3,7.3,0,0,1,1.16,4.2v.66h-7.46a5.82,5.82,0,0,0,.91,3.08,2.84,2.84,0,0,0,2.53,1.27,9,9,0,0,0,3.15-1.22l.64,1.33a5.15,5.15,0,0,1-3.81,1.4A5.22,5.22,0,0,1,410.92,514.81Zm5.14-6.46q-.21-3.62-2.54-3.62-2.62,0-3,3.62Z"/><path class="cls-3" d="M445.76,505.72H433.3V504.1h12.46Zm0,4.74H433.31v-1.59h12.46Z"/><path class="cls-3" d="M459,505.72H446.5V504.1H459Zm0,4.74H446.51v-1.59H459Z"/><path class="cls-3" d="M472.16,505.72H459.7V504.1h12.46Zm0,4.74H459.71v-1.59h12.46Z"/><path class="cls-3" d="M486.94,499.35h2.45l3.11,6.43,3.35-6.43h2.23l-4.3,7.82,4.38,8.2h-2.41l-3.44-6.74-3.51,6.74h-2.3l4.55-8.19Z"/><path class="cls-3" d="M502.54,502.15v13.21h-2v-16h2.74l2.29,7.4,2.29-7.4h2.67v16h-1.94V502.15l-1.9,6.27h-2.24Z"/><path class="cls-3" d="M517.41,513.79h6.19l-.11,1.57H515.4v-16h2Z"/><path class="cls-3" d="M528.86,515.36h-2v-16h2v6.83H535v-6.83h2v16h-2v-7.54h-6.18Z"/><path class="cls-3" d="M544.81,505.08v5.53a9.3,9.3,0,0,0,.11,1.63,2,2,0,0,0,.45,1,1.66,1.66,0,0,0,.88.5,6.52,6.52,0,0,0,1.46.13h2.16l-.11,1.5h-2q-3,0-4-1.12a4.06,4.06,0,0,1-.81-2.35,17.61,17.61,0,0,1-.07-1.77v-5h-3.33l.21-1.5h3.12v-4.06l2-.58v4.64h5v1.5Z"/><path class="cls-3" d="M558,505.08v5.53a9.28,9.28,0,0,0,.11,1.63,2,2,0,0,0,.45,1,1.67,1.67,0,0,0,.88.5,6.54,6.54,0,0,0,1.46.13h2.16l-.11,1.5h-2q-3,0-4.05-1.12a4.06,4.06,0,0,1-.8-2.35,17.26,17.26,0,0,1-.08-1.77v-5h-3.33l.21-1.5h3.12v-4.06l2-.58v4.64h5v1.5Z"/><path class="cls-3" d="M572,515.63a3.87,3.87,0,0,1-2-.53,3.62,3.62,0,0,1-1.34-1.35v6.13l-2,.21V503.58h2v1.62a4.16,4.16,0,0,1,1.38-1.43,3.54,3.54,0,0,1,1.94-.55,4.27,4.27,0,0,1,4.14,2.41,7.94,7.94,0,0,1,.77,3.63,7.26,7.26,0,0,1-1.62,5.11A4.19,4.19,0,0,1,572,515.63Zm-3.38-6.23q0,4.73,3.31,4.73,3,0,3-4.73a6.15,6.15,0,0,0-.8-3.65,2.65,2.65,0,0,0-2.21-1q-2.75,0-3.18,3.18A10.47,10.47,0,0,0,568.6,509.4Z"/><path class="cls-3" d="M586.73,499.64a4.75,4.75,0,0,1,2.43,1.22,3.57,3.57,0,0,1,1,2.7,4,4,0,0,1-1,2.81,4.83,4.83,0,0,1-2.58,1.4,25.06,25.06,0,0,1,2.23,3.39q1,1.77,2.07,4.21h-2.33l-.36-.78-.37-.81-.34-.71q-.27-.57-.39-.78l-.38-.71q-.26-.51-.45-.81l-.57-.93q-.38-.63-1.09-1.61l-1.51,0h-.94v7.11h-2v-16h3.12A18.07,18.07,0,0,1,586.73,499.64Zm.32,6.2a2.55,2.55,0,0,0,1-2.27,2.48,2.48,0,0,0-.31-1.27q-.82-1.39-3.52-1.39h-2v5.6h2.08A5,5,0,0,0,587.06,505.84Z"/><path class="cls-3" d="M595.75,514.81a4.93,4.93,0,0,1-1.83-2.21,7.9,7.9,0,0,1-.6-3.14,8.44,8.44,0,0,1,.55-3.14,5.22,5.22,0,0,1,1.65-2.25,3.86,3.86,0,0,1,2.42-.85,4.1,4.1,0,0,1,3.65,1.71,7.3,7.3,0,0,1,1.16,4.2v.66H595.3a5.82,5.82,0,0,0,.91,3.08,2.84,2.84,0,0,0,2.53,1.27,9,9,0,0,0,3.15-1.22l.64,1.33a5.15,5.15,0,0,1-3.81,1.4A5.22,5.22,0,0,1,595.75,514.81Zm5.14-6.46q-.21-3.62-2.54-3.62-2.62,0-3,3.62Z"/><path class="cls-3" d="M614.3,505.2v-1.62h2v16.31l-1.93.21,0-6.35a5.13,5.13,0,0,1-1.55,1.39,4.25,4.25,0,0,1-2.12.49,4.71,4.71,0,0,1-2.22-.5,4.05,4.05,0,0,1-1.54-1.4,8,8,0,0,1-1.17-4.43,7.25,7.25,0,0,1,1.25-4.35,4.86,4.86,0,0,1,5.88-1.22A4.47,4.47,0,0,1,614.3,505.2Zm0,4.2q0-4.67-3.45-4.67-3.19,0-3.19,4.67,0,3.51,1.91,4.46a3.19,3.19,0,0,0,1.39.27,3.1,3.1,0,0,0,1.51-.38,2.71,2.71,0,0,0,1.07-1.05A6.51,6.51,0,0,0,614.3,509.4Z"/><path class="cls-3" d="M628.92,511.54q0,4.09-4.55,4.09t-4.55-4.09v-8h2v8.13a2.4,2.4,0,0,0,.62,1.84,3.66,3.66,0,0,0,4,0,2.41,2.41,0,0,0,.62-1.84v-8.13h2Z"/><path class="cls-3" d="M635.36,514.81a4.93,4.93,0,0,1-1.83-2.21,7.9,7.9,0,0,1-.6-3.14,8.44,8.44,0,0,1,.55-3.14,5.21,5.21,0,0,1,1.65-2.25,3.86,3.86,0,0,1,2.42-.85,4.1,4.1,0,0,1,3.65,1.71,7.3,7.3,0,0,1,1.16,4.2v.66h-7.47a5.82,5.82,0,0,0,.91,3.08,2.84,2.84,0,0,0,2.53,1.27,9,9,0,0,0,3.15-1.22l.64,1.33a5.16,5.16,0,0,1-3.81,1.4A5.23,5.23,0,0,1,635.36,514.81Zm5.15-6.46q-.22-3.62-2.54-3.62-2.62,0-3,3.62Z"/><path class="cls-3" d="M654.43,509.86a3.51,3.51,0,0,1,.7,2.36A3,3,0,0,1,654,514.7a4.59,4.59,0,0,1-2.95.93,9.55,9.55,0,0,1-2.46-.32,5.22,5.22,0,0,1-1.76-.75l.48-1.41a6.1,6.1,0,0,0,1.43.56,7.54,7.54,0,0,0,2.12.29,3.12,3.12,0,0,0,1.83-.48,1.48,1.48,0,0,0,.68-1.27A2.06,2.06,0,0,0,653,511a2.25,2.25,0,0,0-1.31-.69l-2-.48a3.83,3.83,0,0,1-2.3-1.25,3.51,3.51,0,0,1-.57-2,3.19,3.19,0,0,1,1-2.26,3.9,3.9,0,0,1,2.9-1.05h.14a7.63,7.63,0,0,1,3.64.81l-.43,1.38a8.07,8.07,0,0,0-3.18-.67,2.67,2.67,0,0,0-1.64.5,1.49,1.49,0,0,0-.64,1.23,1.65,1.65,0,0,0,.32,1.11,2.35,2.35,0,0,0,1.22.59l2.05.5A4.18,4.18,0,0,1,654.43,509.86Z"/><path class="cls-3" d="M663.63,505.08v5.53a9.28,9.28,0,0,0,.11,1.63,2,2,0,0,0,.45,1,1.67,1.67,0,0,0,.88.5,6.54,6.54,0,0,0,1.46.13h2.16l-.11,1.5h-2q-3,0-4.05-1.12a4.06,4.06,0,0,1-.8-2.35,17.26,17.26,0,0,1-.08-1.77v-5h-3.33l.21-1.5h3.12v-4.06l2-.58v4.64h5v1.5Z"/><path class="cls-3" d="M678.78,515.36h-3.23v-3.23h3.23Z"/><path class="cls-3" d="M685.45,499.35h2.63a7.59,7.59,0,0,1,5.79,2.07,8.34,8.34,0,0,1,2,6,8.17,8.17,0,0,1-2,5.94q-2,2.05-6,2.05h-2.39Zm2.32,14.45q3.88,0,5.16-2.43a8.67,8.67,0,0,0,.79-4,7.69,7.69,0,0,0-1.27-4.78q-1.27-1.64-4.66-1.64h-.33v12.88Z"/><path class="cls-3" d="M705.92,515a4.45,4.45,0,0,1-4.71,0,5,5,0,0,1-1.67-1.83,12.09,12.09,0,0,1-1.26-5.79q0-4.28,1.69-6.52a4.31,4.31,0,0,1,1.51-1.27,4.82,4.82,0,0,1,4.16,0,5.08,5.08,0,0,1,2.43,3,14.27,14.27,0,0,1,.76,4.8,12.09,12.09,0,0,1-1.26,5.79A5,5,0,0,1,705.92,515Zm-.6-13.34a2.16,2.16,0,0,0-3.5,0,5.76,5.76,0,0,0-1.07,2.37,16.62,16.62,0,0,0,0,6.72,5.71,5.71,0,0,0,1.07,2.36,2.17,2.17,0,0,0,3.5,0,5.76,5.76,0,0,0,1.07-2.36,16.62,16.62,0,0,0,0-6.72A5.81,5.81,0,0,0,705.32,501.62Z"/><path class="cls-3" d="M721.76,515.36H719.4l-5.78-13v13h-1.83v-16h2.31L720,512.26V499.35h1.79Z"/><path class="cls-3" d="M727.72,508v5.78h7.56l-.16,1.57h-9.41v-16h9.22l-.17,1.57h-7v5.39h6.68V508Z"/><path class="cls-3" d="M742.09,497a16.69,16.69,0,0,1,3.24,10,16.12,16.12,0,0,1-3.28,9.92h-1.89a22,22,0,0,0,2.27-4.75,16.64,16.64,0,0,0,.8-5.27,18.31,18.31,0,0,0-3.05-9.93Z"/><path class="cls-3" d="M768.51,510.47a2.36,2.36,0,0,0-.87-2,3.88,3.88,0,0,0-2.24-.78V506.3a3.9,3.9,0,0,0,2.25-.77,2.35,2.35,0,0,0,.86-1.94v-2.5a4.49,4.49,0,0,1,.88-3.08,3.84,3.84,0,0,1,2.95-1h2.48v1.46h-2.45a1.33,1.33,0,0,0-1.09.46,3.74,3.74,0,0,0-.38,2.11v2.59a3,3,0,0,1-1,2.52,6.66,6.66,0,0,1-1.61.84,4.51,4.51,0,0,1,2.17,1.41,3.58,3.58,0,0,1,.47,1.94V513a3.9,3.9,0,0,0,.37,2.1,1.3,1.3,0,0,0,1.11.48h2.45V517h-2.48a3.84,3.84,0,0,1-2.95-1,4.48,4.48,0,0,1-.87-3.08Z"/><path class="cls-3" d="M244.43,548.34h2.12l-7.62,19.43h-2.05Z"/><path class="cls-3" d="M257.63,548.34h2.12l-7.62,19.43h-2.05Z"/><path class="cls-3" d="M286.62,550.42l-.71,1.41a5,5,0,0,0-3.09-1.11,4.07,4.07,0,0,0-2.75.93q-2.13,1.81-2.13,5.67a9.67,9.67,0,0,0,.55,3.35,5.48,5.48,0,0,0,1.63,2.39,3.82,3.82,0,0,0,2.52.9,5.05,5.05,0,0,0,3.3-1.16l.7,1.51a6.26,6.26,0,0,1-4.24,1.31,5.77,5.77,0,0,1-3.46-1.08,6.82,6.82,0,0,1-2.29-3,10.22,10.22,0,0,1-.79-4,11.88,11.88,0,0,1,.51-3.67,7.78,7.78,0,0,1,1.38-2.6,6.21,6.21,0,0,1,2.08-1.64,5.84,5.84,0,0,1,2.59-.58A6.26,6.26,0,0,1,286.62,550.42Z"/><path class="cls-3" d="M298.15,554.94a7.34,7.34,0,0,1,1.28,4.49,6.91,6.91,0,0,1-1.38,4.48,4.58,4.58,0,0,1-3.76,1.71,5.07,5.07,0,0,1-2.26-.48,4.22,4.22,0,0,1-1.6-1.33,7.41,7.41,0,0,1-1.23-4.45,6.89,6.89,0,0,1,1.36-4.44,4.64,4.64,0,0,1,3.84-1.7A4.39,4.39,0,0,1,298.15,554.94Zm-3.87,9.18a2.77,2.77,0,0,0,2.79-2,6.58,6.58,0,0,0,.4-2.25,14.38,14.38,0,0,0-.09-1.8,4.75,4.75,0,0,0-.93-2.38,2.61,2.61,0,0,0-2.17-.92,2.73,2.73,0,0,0-2.73,2.08,7.11,7.11,0,0,0-.39,2.34,8.22,8.22,0,0,0,.68,3.57A2.47,2.47,0,0,0,294.28,564.13Z"/><path class="cls-3" d="M310.34,555.2v-6.43l2-.21v16.81h-2v-1.83a3.71,3.71,0,0,1-3.37,2.09,4,4,0,0,1-3.62-1.78,8.2,8.2,0,0,1-1.13-4.48,6.8,6.8,0,0,1,1.65-4.94,4.13,4.13,0,0,1,3.12-1.2,3.87,3.87,0,0,1,2.16.55A3.11,3.11,0,0,1,310.34,555.2Zm0,4.2q0-2.75-.82-3.71a2.88,2.88,0,0,0-2.32-1,2.59,2.59,0,0,0-2.7,2.06,9.66,9.66,0,0,0-.33,2.72q0,4.62,3,4.62T310.34,559.4Z"/><path class="cls-3" d="M318.51,564.81a4.93,4.93,0,0,1-1.83-2.21,7.9,7.9,0,0,1-.6-3.14,8.44,8.44,0,0,1,.55-3.14,5.21,5.21,0,0,1,1.65-2.25,3.86,3.86,0,0,1,2.42-.85,4.1,4.1,0,0,1,3.65,1.71,7.3,7.3,0,0,1,1.16,4.2v.66h-7.47a5.82,5.82,0,0,0,.91,3.08,2.84,2.84,0,0,0,2.53,1.27,9,9,0,0,0,3.15-1.22l.64,1.33a5.16,5.16,0,0,1-3.81,1.4A5.23,5.23,0,0,1,318.51,564.81Zm5.15-6.46q-.22-3.62-2.54-3.62-2.62,0-3,3.62Z"/><path class="cls-3" d="M346.78,555.08v5.53a9.28,9.28,0,0,0,.11,1.63,2,2,0,0,0,.45,1,1.67,1.67,0,0,0,.88.5,6.54,6.54,0,0,0,1.46.13h2.16l-.11,1.5h-2q-3,0-4.05-1.12a4.06,4.06,0,0,1-.8-2.35,17.26,17.26,0,0,1-.08-1.77v-5H341.5l.21-1.5h3.12v-4.06l2-.58v4.64h5v1.5Z"/><path class="cls-3" d="M364.16,554.94a7.33,7.33,0,0,1,1.28,4.49,6.91,6.91,0,0,1-1.39,4.48,4.58,4.58,0,0,1-3.76,1.71,5.07,5.07,0,0,1-2.26-.48,4.23,4.23,0,0,1-1.6-1.33,7.41,7.41,0,0,1-1.24-4.45,6.89,6.89,0,0,1,1.37-4.44,4.64,4.64,0,0,1,3.84-1.7A4.39,4.39,0,0,1,364.16,554.94Zm-3.87,9.18a2.77,2.77,0,0,0,2.79-2,6.54,6.54,0,0,0,.4-2.25,14.57,14.57,0,0,0-.09-1.8,4.75,4.75,0,0,0-.93-2.38,2.61,2.61,0,0,0-2.18-.92,2.73,2.73,0,0,0-2.73,2.08,7.11,7.11,0,0,0-.39,2.34,8.22,8.22,0,0,0,.68,3.57A2.47,2.47,0,0,0,360.29,564.13Z"/><path class="cls-3" d="M384.52,564.81a4.93,4.93,0,0,1-1.83-2.21,7.9,7.9,0,0,1-.6-3.14,8.44,8.44,0,0,1,.55-3.14,5.22,5.22,0,0,1,1.65-2.25,3.86,3.86,0,0,1,2.42-.85,4.1,4.1,0,0,1,3.65,1.71,7.3,7.3,0,0,1,1.16,4.2v.66h-7.46a5.82,5.82,0,0,0,.91,3.08,2.84,2.84,0,0,0,2.53,1.27,9,9,0,0,0,3.15-1.22l.64,1.33a5.15,5.15,0,0,1-3.81,1.4A5.22,5.22,0,0,1,384.52,564.81Zm5.14-6.46q-.21-3.62-2.54-3.62-2.62,0-3,3.62Z"/><path class="cls-3" d="M395,553.58h2.23l2.8,4.53,2.8-4.53h2l-3.62,5.71,3.75,6.07h-2.17L400,560.67l-3,4.69h-2.15l3.87-6Z"/><path class="cls-3" d="M410.92,564.81a4.93,4.93,0,0,1-1.83-2.21,7.9,7.9,0,0,1-.6-3.14,8.44,8.44,0,0,1,.55-3.14,5.22,5.22,0,0,1,1.65-2.25,3.86,3.86,0,0,1,2.42-.85,4.1,4.1,0,0,1,3.65,1.71,7.3,7.3,0,0,1,1.16,4.2v.66h-7.46a5.82,5.82,0,0,0,.91,3.08,2.84,2.84,0,0,0,2.53,1.27,9,9,0,0,0,3.15-1.22l.64,1.33a5.15,5.15,0,0,1-3.81,1.4A5.22,5.22,0,0,1,410.92,564.81Zm5.14-6.46q-.21-3.62-2.54-3.62-2.62,0-3,3.62Z"/><path class="cls-3" d="M430.5,564.59a4.57,4.57,0,0,1-3.21,1,5.69,5.69,0,0,1-2.43-.51,5,5,0,0,1-1.79-1.37,6.66,6.66,0,0,1-1.47-4.35,6.93,6.93,0,0,1,.67-3,5.57,5.57,0,0,1,2-2.27,5.72,5.72,0,0,1,3.23-.87,4.14,4.14,0,0,1,3,1l-.49,1.31a4.9,4.9,0,0,0-2.79-.83,3.14,3.14,0,0,0-2.58,1.33,5.39,5.39,0,0,0-1,3.39,5.3,5.3,0,0,0,1,3.37,3.19,3.19,0,0,0,2.62,1.31,4.74,4.74,0,0,0,2.81-.86Z"/><path class="cls-3" d="M444.09,561.54q0,4.09-4.55,4.09T435,561.54v-8h2v8.13a2.4,2.4,0,0,0,.62,1.84,3.66,3.66,0,0,0,4,0,2.41,2.41,0,0,0,.62-1.84v-8.13h2Z"/><path class="cls-3" d="M452.4,555.08v5.53a9.28,9.28,0,0,0,.11,1.63,2,2,0,0,0,.45,1,1.67,1.67,0,0,0,.88.5,6.54,6.54,0,0,0,1.46.13h2.16l-.11,1.5h-2q-3,0-4.05-1.12a4.06,4.06,0,0,1-.8-2.35,17.26,17.26,0,0,1-.08-1.77v-5h-3.33l.21-1.5h3.12v-4.06l2-.58v4.64h5v1.5Z"/><path class="cls-3" d="M463.73,564.81a4.93,4.93,0,0,1-1.83-2.21,7.9,7.9,0,0,1-.6-3.14,8.44,8.44,0,0,1,.55-3.14,5.22,5.22,0,0,1,1.65-2.25,3.86,3.86,0,0,1,2.42-.85,4.1,4.1,0,0,1,3.65,1.71,7.3,7.3,0,0,1,1.16,4.2v.66h-7.46a5.82,5.82,0,0,0,.91,3.08,2.84,2.84,0,0,0,2.53,1.27,9,9,0,0,0,3.15-1.22l.64,1.33a5.15,5.15,0,0,1-3.81,1.4A5.22,5.22,0,0,1,463.73,564.81Zm5.14-6.46q-.21-3.62-2.54-3.62-2.62,0-3,3.62Z"/><path class="cls-3" d="M490.3,565.36h-2L486,553.58h2l1.41,9.1,2-9.1h2.33l1.92,9.07,1.23-9.07h1.85l-2.16,11.78h-2.06l-2-10.24Z"/><path class="cls-3" d="M501.68,555.08v-1.5H507v10.28h3.37v1.5h-9.07v-1.5H505v-8.78Zm3-4.61v-1.06a.83.83,0,0,1,.43-.68,1.42,1.42,0,0,1,1.73,0,.83.83,0,0,1,.44.68v1.06a.83.83,0,0,1-.44.68,1.41,1.41,0,0,1-1.73,0A.83.83,0,0,1,504.72,550.47Z"/><path class="cls-3" d="M518.41,555.08v5.53a9.3,9.3,0,0,0,.11,1.63,2,2,0,0,0,.45,1,1.66,1.66,0,0,0,.88.5,6.52,6.52,0,0,0,1.46.13h2.16l-.11,1.5h-2q-3,0-4-1.12a4.06,4.06,0,0,1-.81-2.35,17.61,17.61,0,0,1-.07-1.77v-5h-3.33l.21-1.5h3.12v-4.06l2-.58v4.64h5v1.5Z"/><path class="cls-3" d="M536.56,558.25v7.11h-2V558.5a5.26,5.26,0,0,0-.59-3,2.09,2.09,0,0,0-1.78-.78,3,3,0,0,0-2.09.83,2.44,2.44,0,0,0-.89,1.79v8h-2v-16.6l2-.21V555a4.41,4.41,0,0,1,3.68-1.78Q536.56,553.22,536.56,558.25Z"/><path class="cls-3" d="M557.58,565.36h-2V553.58h1.6l.16,2.18a4.9,4.9,0,0,1,1.89-1.89,5.42,5.42,0,0,1,2.65-.64h.95V555h-1.22a4.42,4.42,0,0,0-3,.94,3.53,3.53,0,0,0-1.1,2.83Z"/><path class="cls-3" d="M569.35,564.81a4.93,4.93,0,0,1-1.83-2.21,7.9,7.9,0,0,1-.6-3.14,8.44,8.44,0,0,1,.55-3.14,5.22,5.22,0,0,1,1.65-2.25,3.86,3.86,0,0,1,2.42-.85,4.1,4.1,0,0,1,3.65,1.71,7.3,7.3,0,0,1,1.16,4.2v.66H568.9a5.82,5.82,0,0,0,.91,3.08,2.84,2.84,0,0,0,2.53,1.27,9,9,0,0,0,3.15-1.22l.64,1.33a5.15,5.15,0,0,1-3.81,1.4A5.22,5.22,0,0,1,569.35,564.81Zm5.14-6.46q-.21-3.62-2.54-3.62-2.62,0-3,3.62Z"/><path class="cls-3" d="M588.42,559.86a3.51,3.51,0,0,1,.7,2.36,3,3,0,0,1-1.18,2.48,4.59,4.59,0,0,1-2.95.93,9.55,9.55,0,0,1-2.46-.32,5.21,5.21,0,0,1-1.76-.75l.48-1.41a6.1,6.1,0,0,0,1.43.56,7.53,7.53,0,0,0,2.12.29,3.12,3.12,0,0,0,1.83-.48,1.48,1.48,0,0,0,.68-1.27A2.06,2.06,0,0,0,587,561a2.24,2.24,0,0,0-1.3-.69l-2-.48a3.82,3.82,0,0,1-2.3-1.25,3.5,3.5,0,0,1-.57-2,3.2,3.2,0,0,1,1-2.26,3.9,3.9,0,0,1,2.89-1.05h.14a7.62,7.62,0,0,1,3.64.81L588,555.4a8.06,8.06,0,0,0-3.18-.67,2.67,2.67,0,0,0-1.64.5,1.49,1.49,0,0,0-.64,1.23,1.65,1.65,0,0,0,.32,1.11,2.35,2.35,0,0,0,1.22.59l2.05.5A4.18,4.18,0,0,1,588.42,559.86Z"/><path class="cls-3" d="M598.38,565.63a3.87,3.87,0,0,1-2-.53,3.62,3.62,0,0,1-1.34-1.35v6.13l-2,.21V553.58h2v1.62a4.16,4.16,0,0,1,1.38-1.43,3.54,3.54,0,0,1,1.94-.55,4.27,4.27,0,0,1,4.14,2.41,7.94,7.94,0,0,1,.77,3.63,7.26,7.26,0,0,1-1.62,5.11A4.19,4.19,0,0,1,598.38,565.63ZM595,559.4q0,4.73,3.31,4.73,3,0,3-4.73a6.15,6.15,0,0,0-.8-3.65,2.65,2.65,0,0,0-2.21-1q-2.75,0-3.18,3.18A10.47,10.47,0,0,0,595,559.4Z"/><path class="cls-3" d="M615,554.94a7.34,7.34,0,0,1,1.28,4.49,6.91,6.91,0,0,1-1.38,4.48,4.58,4.58,0,0,1-3.76,1.71,5.07,5.07,0,0,1-2.26-.48,4.22,4.22,0,0,1-1.6-1.33,7.41,7.41,0,0,1-1.23-4.45,6.89,6.89,0,0,1,1.36-4.44,4.64,4.64,0,0,1,3.84-1.7A4.39,4.39,0,0,1,615,554.94Zm-3.87,9.18a2.77,2.77,0,0,0,2.79-2,6.58,6.58,0,0,0,.4-2.25,14.38,14.38,0,0,0-.09-1.8,4.75,4.75,0,0,0-.93-2.38,2.61,2.61,0,0,0-2.17-.92,2.73,2.73,0,0,0-2.73,2.08,7.11,7.11,0,0,0-.39,2.34,8.22,8.22,0,0,0,.68,3.57A2.47,2.47,0,0,0,611.14,564.13Z"/><path class="cls-3" d="M625.42,553.22q3.66,0,3.66,4.64v7.5h-2V558.1a8.58,8.58,0,0,0-.13-1.78,2.38,2.38,0,0,0-.39-.88,2.13,2.13,0,0,0-1.79-.71,3.2,3.2,0,0,0-2.13.73,2.4,2.4,0,0,0-.87,1.93v8h-2V553.58h1.79l.11,1.28A4.19,4.19,0,0,1,625.42,553.22Z"/><path class="cls-3" d="M641.23,559.86a3.51,3.51,0,0,1,.7,2.36,3,3,0,0,1-1.18,2.48,4.59,4.59,0,0,1-2.95.93,9.55,9.55,0,0,1-2.46-.32,5.21,5.21,0,0,1-1.76-.75l.48-1.41a6.1,6.1,0,0,0,1.43.56,7.53,7.53,0,0,0,2.12.29,3.12,3.12,0,0,0,1.83-.48,1.48,1.48,0,0,0,.68-1.27,2.06,2.06,0,0,0-.34-1.25,2.24,2.24,0,0,0-1.3-.69l-2-.48a3.82,3.82,0,0,1-2.3-1.25,3.5,3.5,0,0,1-.57-2,3.2,3.2,0,0,1,1-2.26,3.9,3.9,0,0,1,2.89-1.05h.14a7.62,7.62,0,0,1,3.64.81l-.43,1.38a8.06,8.06,0,0,0-3.18-.67,2.67,2.67,0,0,0-1.64.5,1.49,1.49,0,0,0-.64,1.23,1.65,1.65,0,0,0,.32,1.11,2.35,2.35,0,0,0,1.22.59l2.05.5A4.18,4.18,0,0,1,641.23,559.86Z"/><path class="cls-3" d="M648.56,564.81a4.93,4.93,0,0,1-1.83-2.21,7.9,7.9,0,0,1-.6-3.14,8.44,8.44,0,0,1,.55-3.14,5.22,5.22,0,0,1,1.65-2.25,3.86,3.86,0,0,1,2.42-.85,4.1,4.1,0,0,1,3.65,1.71,7.3,7.3,0,0,1,1.16,4.2v.66h-7.46a5.82,5.82,0,0,0,.91,3.08,2.84,2.84,0,0,0,2.53,1.27,9,9,0,0,0,3.15-1.22l.64,1.33a5.15,5.15,0,0,1-3.81,1.4A5.22,5.22,0,0,1,648.56,564.81Zm5.14-6.46q-.21-3.62-2.54-3.62-2.62,0-3,3.62Z"/><path class="cls-3" d="M217,603.58a2.34,2.34,0,0,0,.86,1.94,3.89,3.89,0,0,0,2.24.77v1.45a3.88,3.88,0,0,0-2.24.78,2.36,2.36,0,0,0-.86,2V613a4.49,4.49,0,0,1-.88,3.08,3.84,3.84,0,0,1-2.95,1h-2.49v-1.45h2.46a1.26,1.26,0,0,0,1.37-1.07,8.12,8.12,0,0,0,.11-1.5v-2.59a3,3,0,0,1,.67-2.2,5.83,5.83,0,0,1,2-1.15,4.43,4.43,0,0,1-2.17-1.43,3.65,3.65,0,0,1-.46-1.93v-2.59a5.3,5.3,0,0,0-.16-1.69,2.49,2.49,0,0,0-.32-.52,1.23,1.23,0,0,0-1-.35h-2.46V597h2.49a3.84,3.84,0,0,1,2.95,1,4.49,4.49,0,0,1,.88,3.08Z"/><path class="cls-3" d="M164.17,653.58a2.34,2.34,0,0,0,.86,1.94,3.89,3.89,0,0,0,2.24.77v1.45a3.88,3.88,0,0,0-2.24.78,2.36,2.36,0,0,0-.86,2V663a4.49,4.49,0,0,1-.88,3.08,3.84,3.84,0,0,1-2.95,1h-2.49v-1.45h2.46a1.26,1.26,0,0,0,1.37-1.07,8.12,8.12,0,0,0,.11-1.5v-2.59a3,3,0,0,1,.67-2.2,5.83,5.83,0,0,1,2-1.15,4.43,4.43,0,0,1-2.17-1.43,3.65,3.65,0,0,1-.46-1.93v-2.59a5.3,5.3,0,0,0-.16-1.69,2.49,2.49,0,0,0-.32-.52,1.23,1.23,0,0,0-1-.35h-2.46V647h2.49a3.84,3.84,0,0,1,2.95,1,4.49,4.49,0,0,1,.88,3.08Z"/><path class="cls-3" d="M173.29,668.72l.82-6.43H177l-1.8,6.43Zm4-12.36H174v-3.23h3.21Z"/><path class="cls-3" d="M157.39,753.58h2.23l2.8,4.53,2.8-4.53h2l-3.62,5.71,3.75,6.07h-2.17l-2.88-4.69-3,4.69h-2.15l3.87-6Z"/><path class="cls-3" d="M180.1,758.25v7.11h-2V758.5a5.28,5.28,0,0,0-.59-3,2.09,2.09,0,0,0-1.78-.78,3,3,0,0,0-2.09.83,2.44,2.44,0,0,0-.89,1.79v8h-2v-16.6l2-.21V755a4.42,4.42,0,0,1,3.69-1.78Q180.1,753.22,180.1,758.25Z"/><path class="cls-3" d="M187.92,765.36h-2V753.58h1.6l.16,2.18a4.9,4.9,0,0,1,1.89-1.89,5.42,5.42,0,0,1,2.65-.64h.95V755H192a4.42,4.42,0,0,0-3,.94,3.52,3.52,0,0,0-1.1,2.83Z"/><path class="cls-3" d="M203.5,765.36h-3.23v-3.23h3.23Z"/><path class="cls-3" d="M218.94,754.94a7.34,7.34,0,0,1,1.28,4.49,6.91,6.91,0,0,1-1.38,4.48,4.58,4.58,0,0,1-3.76,1.71,5.07,5.07,0,0,1-2.26-.48,4.22,4.22,0,0,1-1.6-1.33,7.41,7.41,0,0,1-1.23-4.45,6.89,6.89,0,0,1,1.36-4.44,4.64,4.64,0,0,1,3.84-1.7A4.39,4.39,0,0,1,218.94,754.94Zm-3.87,9.18a2.77,2.77,0,0,0,2.79-2,6.58,6.58,0,0,0,.4-2.25,14.38,14.38,0,0,0-.09-1.8,4.75,4.75,0,0,0-.93-2.38,2.62,2.62,0,0,0-2.17-.92,2.73,2.73,0,0,0-2.73,2.08,7.11,7.11,0,0,0-.39,2.34,8.23,8.23,0,0,0,.68,3.57A2.47,2.47,0,0,0,215.07,764.13Z"/><path class="cls-3" d="M228.72,765.63a3.87,3.87,0,0,1-2-.53,3.62,3.62,0,0,1-1.34-1.35v6.13l-2,.21V753.58h2v1.62a4.16,4.16,0,0,1,1.38-1.43,3.54,3.54,0,0,1,1.94-.55,4.28,4.28,0,0,1,4.14,2.41,7.94,7.94,0,0,1,.77,3.63,7.26,7.26,0,0,1-1.62,5.11A4.19,4.19,0,0,1,228.72,765.63Zm-3.38-6.23q0,4.73,3.31,4.73,3,0,3-4.73a6.14,6.14,0,0,0-.8-3.65,2.65,2.65,0,0,0-2.21-1q-2.75,0-3.18,3.18A10.47,10.47,0,0,0,225.34,759.4Z"/><path class="cls-3" d="M239.29,764.81a4.94,4.94,0,0,1-1.83-2.21,7.91,7.91,0,0,1-.6-3.14,8.43,8.43,0,0,1,.55-3.14,5.2,5.2,0,0,1,1.65-2.25,3.86,3.86,0,0,1,2.42-.85,4.1,4.1,0,0,1,3.65,1.71,7.3,7.3,0,0,1,1.16,4.2v.66h-7.47a5.82,5.82,0,0,0,.91,3.08,2.84,2.84,0,0,0,2.53,1.27,9,9,0,0,0,3.15-1.22l.64,1.33a5.16,5.16,0,0,1-3.81,1.4A5.24,5.24,0,0,1,239.29,764.81Zm5.15-6.46q-.22-3.62-2.54-3.62-2.62,0-3,3.62Z"/><path class="cls-3" d="M255.76,753.22q3.66,0,3.66,4.64v7.5h-2V758.1a8.59,8.59,0,0,0-.13-1.78,2.39,2.39,0,0,0-.39-.88,2.13,2.13,0,0,0-1.79-.71,3.2,3.2,0,0,0-2.13.73,2.4,2.4,0,0,0-.87,1.93v8h-2V753.58H252l.11,1.28A4.19,4.19,0,0,1,255.76,753.22Z"/><path class="cls-3" d="M268.7,767a16.11,16.11,0,0,1-3.28-9.92,16.69,16.69,0,0,1,3.24-10h1.89A18.31,18.31,0,0,0,267.5,757a16.64,16.64,0,0,0,.8,5.27,22,22,0,0,0,2.27,4.75Z"/><path class="cls-3" d="M280.5,755l-.67-6.56h2.78L282,755Z"/><path class="cls-3" d="M299,751.88a4.84,4.84,0,0,0-3.38-1.16,3.74,3.74,0,0,0-2,.56,4.36,4.36,0,0,0-1.46,1.49,8.84,8.84,0,0,0-1.16,4.61,9.37,9.37,0,0,0,1,4.57,3.92,3.92,0,0,0,1.34,1.47,3.29,3.29,0,0,0,1.81.54,4.63,4.63,0,0,0,1.62-.24,8.92,8.92,0,0,0,1.41-.69v-4.38h-3.55V757H300v6.94a13.73,13.73,0,0,1-2.38,1.25,7.16,7.16,0,0,1-2.62.44,5.52,5.52,0,0,1-2.7-.66,5.4,5.4,0,0,1-2-1.81,10.49,10.49,0,0,1-1.53-5.85,10.93,10.93,0,0,1,.5-3.37,7.72,7.72,0,0,1,1.38-2.6,6.28,6.28,0,0,1,2.09-1.65,5.89,5.89,0,0,1,2.61-.59,6.31,6.31,0,0,1,4.25,1.36Z"/><path class="cls-3" d="M305.25,758v5.78h7.56l-.16,1.57h-9.41v-16h9.22l-.17,1.57h-7v5.39h6.68V758Z"/><path class="cls-3" d="M326.24,749.35v1.57h-4.55v14.45h-2V750.91h-4.55v-1.57Z"/><path class="cls-3" d="M333.31,755l-.67-6.56h2.78l-.59,6.56Z"/><path class="cls-3" d="M345.25,768.81l.55-6.52h2.76l-2,6.52Z"/><path class="cls-3" d="M378.08,761.54q0,4.09-4.55,4.09T369,761.54v-8h2v8.13a2.4,2.4,0,0,0,.62,1.84,3.66,3.66,0,0,0,4,0,2.4,2.4,0,0,0,.62-1.84v-8.13h2Z"/><path class="cls-3" d="M386,765.36h-2V753.58h1.6l.16,2.18a4.88,4.88,0,0,1,1.89-1.89,5.4,5.4,0,0,1,2.65-.64h.95V755H390a4.41,4.41,0,0,0-3,.94,3.52,3.52,0,0,0-1.1,2.83Z"/><path class="cls-3" d="M404.49,765.36h-1.56a7.37,7.37,0,0,1-3-.43,2.68,2.68,0,0,1-.82-.57q-.8-.83-.83-3.65V750.05H394.8v-1.5h5.48v12.06a5.15,5.15,0,0,0,.39,2.62,1.44,1.44,0,0,0,1,.55,10.18,10.18,0,0,0,1.2.07h1.73Z"/><path class="cls-3" d="M412,747a16.69,16.69,0,0,1,3.24,10A16.12,16.12,0,0,1,412,767h-1.89a22,22,0,0,0,2.27-4.75,16.64,16.64,0,0,0,.8-5.27,18.31,18.31,0,0,0-3.05-9.93Z"/><path class="cls-3" d="M424.14,768.72l.82-6.43h2.92l-1.8,6.43Zm4-12.36h-3.21v-3.23h3.21Z"/><path class="cls-3" d="M157.39,803.58h2.23l2.8,4.53,2.8-4.53h2l-3.62,5.71,3.75,6.07h-2.17l-2.88-4.69-3,4.69h-2.15l3.87-6Z"/><path class="cls-3" d="M180.1,808.25v7.11h-2V808.5a5.28,5.28,0,0,0-.59-3,2.09,2.09,0,0,0-1.78-.78,3,3,0,0,0-2.09.83,2.44,2.44,0,0,0-.89,1.79v8h-2v-16.6l2-.21V805a4.42,4.42,0,0,1,3.69-1.78Q180.1,803.22,180.1,808.25Z"/><path class="cls-3" d="M187.92,815.36h-2V803.58h1.6l.16,2.18a4.9,4.9,0,0,1,1.89-1.89,5.42,5.42,0,0,1,2.65-.64h.95V805H192a4.42,4.42,0,0,0-3,.94,3.52,3.52,0,0,0-1.1,2.83Z"/><path class="cls-3" d="M203.5,815.36h-3.23v-3.23h3.23Z"/><path class="cls-3" d="M218.76,809.86a3.51,3.51,0,0,1,.7,2.36,3,3,0,0,1-1.18,2.48,4.59,4.59,0,0,1-2.95.93,9.5,9.5,0,0,1-2.46-.32,5.21,5.21,0,0,1-1.76-.75l.48-1.41a6.1,6.1,0,0,0,1.43.56,7.53,7.53,0,0,0,2.12.29,3.12,3.12,0,0,0,1.83-.48,1.48,1.48,0,0,0,.68-1.27,2.06,2.06,0,0,0-.34-1.25,2.24,2.24,0,0,0-1.3-.69l-2-.48a3.83,3.83,0,0,1-2.3-1.25,3.5,3.5,0,0,1-.57-2,3.2,3.2,0,0,1,1-2.26,3.9,3.9,0,0,1,2.89-1.05h.14a7.62,7.62,0,0,1,3.64.81l-.43,1.38a8.06,8.06,0,0,0-3.18-.67,2.67,2.67,0,0,0-1.64.5,1.49,1.49,0,0,0-.64,1.23,1.65,1.65,0,0,0,.32,1.11,2.34,2.34,0,0,0,1.22.59l2.05.5A4.18,4.18,0,0,1,218.76,809.86Z"/><path class="cls-3" d="M226.09,814.81a4.94,4.94,0,0,1-1.83-2.21,7.91,7.91,0,0,1-.6-3.14,8.44,8.44,0,0,1,.55-3.14,5.21,5.21,0,0,1,1.65-2.24,3.86,3.86,0,0,1,2.42-.85,4.1,4.1,0,0,1,3.65,1.71,7.3,7.3,0,0,1,1.16,4.2v.66h-7.46a5.82,5.82,0,0,0,.91,3.08,2.84,2.84,0,0,0,2.53,1.27,9,9,0,0,0,3.15-1.22l.64,1.33a5.15,5.15,0,0,1-3.81,1.4A5.23,5.23,0,0,1,226.09,814.81Zm5.14-6.46q-.21-3.62-2.54-3.62-2.62,0-3,3.62Z"/><path class="cls-3" d="M242.56,803.22q3.66,0,3.66,4.64v7.5h-2V808.1a8.58,8.58,0,0,0-.13-1.78,2.38,2.38,0,0,0-.39-.88,2.13,2.13,0,0,0-1.79-.71,3.2,3.2,0,0,0-2.13.73,2.4,2.4,0,0,0-.87,1.93v8h-2V803.58h1.79l.11,1.28A4.19,4.19,0,0,1,242.56,803.22Z"/><path class="cls-3" d="M257.53,805.2v-6.43l2-.21v16.81h-2v-1.83a3.71,3.71,0,0,1-3.37,2.09,4,4,0,0,1-3.62-1.78,8.2,8.2,0,0,1-1.13-4.48,6.8,6.8,0,0,1,1.65-4.94,4.13,4.13,0,0,1,3.12-1.2,3.87,3.87,0,0,1,2.16.55A3.11,3.11,0,0,1,257.53,805.2Zm0,4.2q0-2.75-.82-3.71a2.88,2.88,0,0,0-2.32-1,2.59,2.59,0,0,0-2.7,2.06,9.66,9.66,0,0,0-.33,2.72q0,4.62,3,4.62T257.53,809.4Z"/><path class="cls-3" d="M268.7,817a16.11,16.11,0,0,1-3.28-9.92,16.69,16.69,0,0,1,3.24-10h1.89A18.31,18.31,0,0,0,267.5,807a16.64,16.64,0,0,0,.8,5.27,22,22,0,0,0,2.27,4.75Z"/><path class="cls-3" d="M280,797a16.69,16.69,0,0,1,3.24,10A16.12,16.12,0,0,1,280,817h-1.89a22,22,0,0,0,2.27-4.75,16.64,16.64,0,0,0,.8-5.27,18.3,18.3,0,0,0-3.05-9.93Z"/><path class="cls-3" d="M292.11,818.72l.82-6.43h2.92l-1.8,6.43Zm4-12.36h-3.21v-3.23h3.21Z"/><path class="cls-4" d="M367.43,184.43a5.69,5.69,0,0,1-3.23-.91,5.6,5.6,0,0,1-2-2.38,7.83,7.83,0,0,1-.67-3.28,8.32,8.32,0,0,1,.4-2.6,7,7,0,0,1,1.13-2.16,5.13,5.13,0,0,1,1.89-1.48,6,6,0,0,1,2.57-.54,7.11,7.11,0,0,1,1.85.25,4,4,0,0,1,1.37.59l-.46,1.09a5.73,5.73,0,0,0-2.86-.68,3.8,3.8,0,0,0-3.18,1.52,6.41,6.41,0,0,0-1.17,4,6.1,6.1,0,0,0,1.17,3.88,3.83,3.83,0,0,0,3.18,1.48,7.62,7.62,0,0,0,3-.7l.22,1a4.11,4.11,0,0,1-1.43.64A7,7,0,0,1,367.43,184.43Z"/><path class="cls-4" d="M374.37,184.14q0-11.31,0-12.84h1.2l.09,2.53a6,6,0,0,1,1.76-1.87,3.9,3.9,0,0,1,2.23-.73,7,7,0,0,1,1,.08l-.11,1.21a5.42,5.42,0,0,0-.89-.07,3.47,3.47,0,0,0-2.74,1.28,4.5,4.5,0,0,0-1.11,3v7.37Z"/><path class="cls-4" d="M388.66,184.43a5.34,5.34,0,0,1-4.22-1.78,7.06,7.06,0,0,1-1.56-4.83A7.37,7.37,0,0,1,384.4,173a5,5,0,0,1,4-1.93,4.53,4.53,0,0,1,3.63,1.62,6.48,6.48,0,0,1,1.37,4.34q0,.11,0,.43t0,.45h-8.94a6.15,6.15,0,0,0,1.2,3.92,3.78,3.78,0,0,0,3.09,1.45,7.25,7.25,0,0,0,2.18-.29,11.45,11.45,0,0,0,1.93-.83l.25,1.09A8.22,8.22,0,0,1,388.66,184.43Zm-4.2-7.7h7.31a5.11,5.11,0,0,0-.93-3.29,3.1,3.1,0,0,0-2.54-1.14,3.27,3.27,0,0,0-2.65,1.22A5.76,5.76,0,0,0,384.47,176.73Z"/><path class="cls-4" d="M400.51,184.43a4.38,4.38,0,0,1-2.91-.91,3.22,3.22,0,0,1-1.09-2.61,3.42,3.42,0,0,1,.43-1.75,3.26,3.26,0,0,1,1.26-1.21,7.44,7.44,0,0,1,1.89-.72,15.42,15.42,0,0,1,2.47-.36l2.23-.15v-1.43a3.21,3.21,0,0,0-.67-2.22,2.79,2.79,0,0,0-2.16-.74,7.78,7.78,0,0,0-3.81,1l-.22-.51q-.17-.39-.24-.6a6.78,6.78,0,0,1,1.9-.79,8.79,8.79,0,0,1,2.3-.32,4.62,4.62,0,0,1,3.32,1,4.85,4.85,0,0,1,1,3.51v8.58h-1.14q-.06-.27-.17-1.07t-.11-.82A4.91,4.91,0,0,1,400.51,184.43Zm0-1.16a4.29,4.29,0,0,0,2.67-.88,4.14,4.14,0,0,0,1.53-2.46v-2.19l-1.7.14a10,10,0,0,0-4,.94,2.3,2.3,0,0,0-1.11,2.11,2.15,2.15,0,0,0,.71,1.76A2.86,2.86,0,0,0,400.56,183.27Z"/><path class="cls-4" d="M414.28,184.41a3.29,3.29,0,0,1-2.37-.73,3.23,3.23,0,0,1-.75-2.38v-8.93h-1.82l.11-.88,1.73-.16.39-2.94,1-.07v3h3.75v1.07h-3.75V181a2.7,2.7,0,0,0,.45,1.82,2.14,2.14,0,0,0,1.57.46,7.7,7.7,0,0,0,1.8-.27l.06,1.13A12.13,12.13,0,0,1,414.28,184.41Z"/><path class="cls-4" d="M424.74,184.43a5.34,5.34,0,0,1-4.22-1.78,7.06,7.06,0,0,1-1.56-4.83,7.37,7.37,0,0,1,1.53-4.82,5,5,0,0,1,4-1.93,4.53,4.53,0,0,1,3.63,1.62,6.48,6.48,0,0,1,1.37,4.34q0,.11,0,.43t0,.45h-8.94a6.15,6.15,0,0,0,1.2,3.92,3.78,3.78,0,0,0,3.09,1.45A7.25,7.25,0,0,0,427,183a11.45,11.45,0,0,0,1.93-.83l.25,1.09A8.22,8.22,0,0,1,424.74,184.43Zm-4.2-7.7h7.31a5.11,5.11,0,0,0-.93-3.29,3.1,3.1,0,0,0-2.54-1.14,3.27,3.27,0,0,0-2.65,1.22A5.76,5.76,0,0,0,420.55,176.73Z"/><path class="cls-4" d="M437.06,184.44a8.63,8.63,0,0,1-2.33-.3,6.09,6.09,0,0,1-1.72-.73l.21-1.22a8,8,0,0,0,3.7,1q3.18,0,3.29-2.36a2,2,0,0,0-.64-1.55,7.78,7.78,0,0,0-2.56-1.17l-1.11-.39q-3-.91-3-3.25a3.1,3.1,0,0,1,1.19-2.38,4.72,4.72,0,0,1,3.22-1,9.22,9.22,0,0,1,3.81.8l-.49,1.08a9.56,9.56,0,0,0-3.35-.68,3.39,3.39,0,0,0-2.14.61,2,2,0,0,0-.78,1.64,1.71,1.71,0,0,0,.51,1.33,5.37,5.37,0,0,0,2,.88l.6.21.49.18a6.57,6.57,0,0,1,2.83,1.47,3.23,3.23,0,0,1,.8,2.31,3.17,3.17,0,0,1-1.26,2.61A5.26,5.26,0,0,1,437.06,184.44Z"/><path class="cls-4" d="M451.72,184.14V171.3H453l.2,2a4.81,4.81,0,0,1,1.86-1.62,5.48,5.48,0,0,1,2.51-.59,4.06,4.06,0,0,1,3.26,1.22,5.93,5.93,0,0,1,1,3.89v8h-1.46v-8.62a3.87,3.87,0,0,0-.73-2.46,2.81,2.81,0,0,0-2.19-.75,4.45,4.45,0,0,0-2.85.88,3.77,3.77,0,0,0-1.39,2.27q0,.55,0,1.15v7.54Z"/><path class="cls-4" d="M471.38,184.43a5.34,5.34,0,0,1-4.22-1.78,7.06,7.06,0,0,1-1.56-4.83,7.37,7.37,0,0,1,1.53-4.82,5,5,0,0,1,4-1.93,4.53,4.53,0,0,1,3.63,1.62,6.48,6.48,0,0,1,1.37,4.34q0,.11,0,.43t0,.45h-8.94a6.15,6.15,0,0,0,1.2,3.92,3.78,3.78,0,0,0,3.09,1.45,7.25,7.25,0,0,0,2.18-.29,11.45,11.45,0,0,0,1.93-.83l.25,1.09A8.22,8.22,0,0,1,471.38,184.43Zm-4.2-7.7h7.31a5.11,5.11,0,0,0-.93-3.29A3.1,3.1,0,0,0,471,172.3a3.27,3.27,0,0,0-2.65,1.22A5.76,5.76,0,0,0,467.18,176.73Z"/><path class="cls-4" d="M482.07,184.14l-3.59-12.84H480l3,11.47q3.2-10.29,3.57-11.47h1.78q3.5,11.44,3.54,11.44l2.84-11.44h1.51l-3.53,12.84H491s-.57-1.79-1.65-5.4-1.7-5.73-1.87-6.36q-.14.63-1.07,3.57t-1.78,5.57q-.86,2.64-.87,2.63Z"/><path class="cls-4" d="M510.75,184.43a5.45,5.45,0,0,1-3.08-.88,5.63,5.63,0,0,1-2-2.38,8,8,0,0,1-.7-3.4,8.42,8.42,0,0,1,.4-2.65,6.39,6.39,0,0,1,1.15-2.12,5.23,5.23,0,0,1,1.86-1.41,5.87,5.87,0,0,1,2.47-.51,5.38,5.38,0,0,1,5.12,3.26,8.32,8.32,0,0,1,.66,3.4,8.21,8.21,0,0,1-.68,3.42,5.51,5.51,0,0,1-2,2.38A5.63,5.63,0,0,1,510.75,184.43Zm.11-1.16a3.77,3.77,0,0,0,2.37-.74,4.22,4.22,0,0,0,1.41-2,8.23,8.23,0,0,0,.44-2.8,6.85,6.85,0,0,0-1.05-4,3.65,3.65,0,0,0-3.21-1.51,3.83,3.83,0,0,0-2.4.76,4.34,4.34,0,0,0-1.45,2,8,8,0,0,0-.46,2.81,6.52,6.52,0,0,0,1.12,3.94A3.75,3.75,0,0,0,510.86,183.27Z"/><path class="cls-4" d="M526,184.43a4.87,4.87,0,0,1-4.16-2.14l-.15,1.86h-1.22V166.32l1.44-.13v4.32q0,2,0,2.73a4.5,4.5,0,0,1,1.82-1.64,5.2,5.2,0,0,1,2.3-.54,4.87,4.87,0,0,1,4.06,1.86,7.52,7.52,0,0,1,1.46,4.79,9.2,9.2,0,0,1-.6,3.46,5.05,5.05,0,0,1-4.92,3.25Zm.07-1.16a3.64,3.64,0,0,0,1.87-.46,3.17,3.17,0,0,0,1.22-1.27,6.46,6.46,0,0,0,.62-1.73,10,10,0,0,0,.19-2,11.4,11.4,0,0,0-.11-1.63,6.75,6.75,0,0,0-.4-1.5,4.52,4.52,0,0,0-.71-1.25,3.11,3.11,0,0,0-1.11-.83,3.69,3.69,0,0,0-1.56-.32,3.61,3.61,0,0,0-3.1,1.46,6.85,6.85,0,0,0-1.06,4.14,9.59,9.59,0,0,0,.23,2.2,5.21,5.21,0,0,0,.71,1.7,3.2,3.2,0,0,0,1.29,1.13A4.36,4.36,0,0,0,526,183.27Z"/><path class="cls-4" d="M532.91,190.59l-.22-1.17h.57a5.16,5.16,0,0,0,1.28-.12,1,1,0,0,0,.66-.53,2.17,2.17,0,0,0,.24-.77q0-.37,0-1.25V171.3h1.46V187a8.4,8.4,0,0,1-.15,1.76,2.18,2.18,0,0,1-.55,1.07,2.09,2.09,0,0,1-1,.57,7.7,7.7,0,0,1-1.72.15Zm2.57-21.93v-2h1.46v2Z"/><path class="cls-4" d="M546.26,184.43a5.34,5.34,0,0,1-4.22-1.78,7.06,7.06,0,0,1-1.56-4.83A7.37,7.37,0,0,1,542,173a5,5,0,0,1,4-1.93,4.53,4.53,0,0,1,3.63,1.62A6.48,6.48,0,0,1,551,177q0,.11,0,.43t0,.45H542a6.15,6.15,0,0,0,1.2,3.92,3.78,3.78,0,0,0,3.09,1.45,7.25,7.25,0,0,0,2.18-.29,11.45,11.45,0,0,0,1.93-.83l.25,1.09A8.22,8.22,0,0,1,546.26,184.43Zm-4.2-7.7h7.31a5.11,5.11,0,0,0-.93-3.29,3.1,3.1,0,0,0-2.54-1.14,3.27,3.27,0,0,0-2.65,1.22A5.76,5.76,0,0,0,542.06,176.73Z"/><path class="cls-4" d="M560.18,184.43a5.69,5.69,0,0,1-3.23-.91,5.6,5.6,0,0,1-2-2.38,7.83,7.83,0,0,1-.67-3.28,8.32,8.32,0,0,1,.4-2.6,7,7,0,0,1,1.13-2.16,5.13,5.13,0,0,1,1.89-1.48,6,6,0,0,1,2.57-.54,7.11,7.11,0,0,1,1.85.25,4,4,0,0,1,1.37.59L563,173a5.73,5.73,0,0,0-2.86-.68,3.8,3.8,0,0,0-3.18,1.52,6.41,6.41,0,0,0-1.17,4,6.1,6.1,0,0,0,1.17,3.88,3.83,3.83,0,0,0,3.18,1.48,7.62,7.62,0,0,0,3-.7l.22,1a4.11,4.11,0,0,1-1.43.64A7,7,0,0,1,560.18,184.43Z"/><path class="cls-4" d="M570.71,184.41a3.29,3.29,0,0,1-2.37-.73,3.23,3.23,0,0,1-.75-2.38v-8.93h-1.82l.11-.88,1.73-.16.39-2.94,1-.07v3h3.75v1.07H569V181a2.7,2.7,0,0,0,.45,1.82,2.14,2.14,0,0,0,1.57.46,7.7,7.7,0,0,0,1.8-.27l.06,1.13A12.13,12.13,0,0,1,570.71,184.41Z"/><path class="cls-4" d="M858,543.15V525.32l1.45-.13v6.47a.46.46,0,0,1,0,.11.73.73,0,0,0,0,.13l0,.35a5.21,5.21,0,0,1,4.5-2.18q4.18,0,4.18,5.05v8h-1.44V535.4a5.65,5.65,0,0,0-.67-3.13,2.66,2.66,0,0,0-2.36-1,4.34,4.34,0,0,0-2.79.88,3.68,3.68,0,0,0-1.37,2.28q0,.47,0,1.39v7.29Z"/><path class="cls-4" d="M875.87,543.43a4.38,4.38,0,0,1-2.91-.91,3.22,3.22,0,0,1-1.09-2.61,3.42,3.42,0,0,1,.43-1.75,3.26,3.26,0,0,1,1.26-1.21,7.44,7.44,0,0,1,1.89-.72,15.42,15.42,0,0,1,2.47-.36l2.23-.15v-1.43a3.21,3.21,0,0,0-.67-2.22,2.79,2.79,0,0,0-2.16-.74,7.78,7.78,0,0,0-3.81,1l-.22-.51q-.17-.39-.24-.6a6.78,6.78,0,0,1,1.9-.79,8.79,8.79,0,0,1,2.3-.32,4.62,4.62,0,0,1,3.32,1,4.85,4.85,0,0,1,1,3.51v8.58h-1.14q-.06-.27-.17-1.07t-.11-.82A4.91,4.91,0,0,1,875.87,543.43Zm0-1.16a4.29,4.29,0,0,0,2.67-.88,4.14,4.14,0,0,0,1.53-2.46v-2.19l-1.7.14a10,10,0,0,0-4,.94,2.3,2.3,0,0,0-1.11,2.11,2.15,2.15,0,0,0,.71,1.76A2.86,2.86,0,0,0,875.91,542.27Z"/><path class="cls-4" d="M886,543.15V530.3h1.27l.2,2a4.81,4.81,0,0,1,1.86-1.62,5.48,5.48,0,0,1,2.51-.59,4.06,4.06,0,0,1,3.26,1.22,5.93,5.93,0,0,1,1,3.89v8h-1.46v-8.62a3.87,3.87,0,0,0-.73-2.46,2.81,2.81,0,0,0-2.19-.75,4.45,4.45,0,0,0-2.85.88,3.77,3.77,0,0,0-1.39,2.27q0,.55,0,1.15v7.54Z"/><path class="cls-4" d="M905.33,543.42a4.85,4.85,0,0,1-4-1.78,7.64,7.64,0,0,1-1.44-4.92,7.43,7.43,0,0,1,1.48-4.8,4.77,4.77,0,0,1,3.91-1.85,6,6,0,0,1,2.39.52,3.73,3.73,0,0,1,1.82,1.61v-6.87l1.41-.13v18h-1.21l-.21-1.93a4.28,4.28,0,0,1-1.81,1.65A5.28,5.28,0,0,1,905.33,543.42Zm0-1.15a4.32,4.32,0,0,0,1.91-.4,3.29,3.29,0,0,0,1.31-1.12,5.27,5.27,0,0,0,.73-1.67,8.48,8.48,0,0,0,.24-2.09q0-5.73-4.22-5.73a3.25,3.25,0,0,0-1.76.47,3.4,3.4,0,0,0-1.2,1.28,6.63,6.63,0,0,0-.65,1.75,9.08,9.08,0,0,0-.21,2,10.53,10.53,0,0,0,.13,1.69,6.87,6.87,0,0,0,.42,1.51,4.52,4.52,0,0,0,.73,1.22,3.08,3.08,0,0,0,1.09.81A3.52,3.52,0,0,0,905.29,542.27Z"/><path class="cls-4" d="M918.53,543.42a3.29,3.29,0,0,1-2.37-.73,3.23,3.23,0,0,1-.75-2.38v-15l1.43-.12v15a2.34,2.34,0,0,0,.43,1.62,1.72,1.72,0,0,0,1.29.45,7.36,7.36,0,0,0,1.76-.27l.06,1.13A8.19,8.19,0,0,1,918.53,543.42Z"/><path class="cls-4" d="M928.27,543.43a5.34,5.34,0,0,1-4.22-1.78,7.06,7.06,0,0,1-1.56-4.83A7.37,7.37,0,0,1,924,532a5,5,0,0,1,4-1.93,4.53,4.53,0,0,1,3.63,1.62A6.48,6.48,0,0,1,933,536q0,.11,0,.43t0,.45H924a6.15,6.15,0,0,0,1.2,3.92,3.78,3.78,0,0,0,3.09,1.45,7.25,7.25,0,0,0,2.18-.29,11.45,11.45,0,0,0,1.93-.83l.25,1.09A8.22,8.22,0,0,1,928.27,543.43Zm-4.2-7.7h7.31a5.11,5.11,0,0,0-.93-3.29,3.1,3.1,0,0,0-2.54-1.14,3.27,3.27,0,0,0-2.65,1.22A5.76,5.76,0,0,0,924.08,535.73Z"/><path class="cls-4" d="M940.59,543.44a8.63,8.63,0,0,1-2.33-.3,6.09,6.09,0,0,1-1.72-.73l.21-1.22a8,8,0,0,0,3.7,1q3.18,0,3.29-2.36a2,2,0,0,0-.64-1.55,7.78,7.78,0,0,0-2.56-1.17l-1.11-.39q-3-.91-3-3.25a3.1,3.1,0,0,1,1.19-2.38,4.72,4.72,0,0,1,3.22-1,9.22,9.22,0,0,1,3.81.8l-.49,1.08a9.56,9.56,0,0,0-3.35-.68,3.39,3.39,0,0,0-2.14.61,2,2,0,0,0-.78,1.64,1.71,1.71,0,0,0,.51,1.33,5.37,5.37,0,0,0,2,.88l.6.21.49.18a6.57,6.57,0,0,1,2.83,1.47,3.23,3.23,0,0,1,.8,2.31,3.17,3.17,0,0,1-1.26,2.61A5.26,5.26,0,0,1,940.59,543.44Z"/><path class="cls-4" d="M955.27,543.15q0-11.31,0-12.84h1.2l.09,2.53a6,6,0,0,1,1.76-1.87,3.9,3.9,0,0,1,2.23-.73,7,7,0,0,1,1,.08l-.11,1.21a5.42,5.42,0,0,0-.89-.07,3.47,3.47,0,0,0-2.74,1.28,4.5,4.5,0,0,0-1.11,3v7.37Z"/><path class="cls-4" d="M969.56,543.43a5.34,5.34,0,0,1-4.22-1.78,7.06,7.06,0,0,1-1.56-4.83A7.37,7.37,0,0,1,965.3,532a5,5,0,0,1,4-1.93,4.53,4.53,0,0,1,3.63,1.62,6.48,6.48,0,0,1,1.37,4.34q0,.11,0,.43t0,.45h-8.94a6.15,6.15,0,0,0,1.2,3.92,3.78,3.78,0,0,0,3.09,1.45,7.25,7.25,0,0,0,2.18-.29,11.45,11.45,0,0,0,1.93-.83l.25,1.09A8.22,8.22,0,0,1,969.56,543.43Zm-4.2-7.7h7.31a5.11,5.11,0,0,0-.93-3.29,3.1,3.1,0,0,0-2.54-1.14,3.27,3.27,0,0,0-2.65,1.22A5.76,5.76,0,0,0,965.37,535.73Z"/><path class="cls-4" d="M981.88,543.44a8.63,8.63,0,0,1-2.33-.3,6.09,6.09,0,0,1-1.72-.73l.21-1.22a8,8,0,0,0,3.7,1q3.18,0,3.29-2.36a2,2,0,0,0-.64-1.55,7.78,7.78,0,0,0-2.56-1.17l-1.11-.39q-3-.91-3-3.25a3.1,3.1,0,0,1,1.19-2.38,4.72,4.72,0,0,1,3.22-1,9.22,9.22,0,0,1,3.81.8l-.49,1.08a9.56,9.56,0,0,0-3.35-.68,3.39,3.39,0,0,0-2.14.61,2,2,0,0,0-.78,1.64,1.71,1.71,0,0,0,.51,1.33,5.37,5.37,0,0,0,2,.88l.6.21.49.18a6.57,6.57,0,0,1,2.83,1.47,3.23,3.23,0,0,1,.8,2.31,3.17,3.17,0,0,1-1.26,2.61A5.26,5.26,0,0,1,981.88,543.44Z"/><path class="cls-4" d="M990.15,548.86V530.3h1.3l.13,1.83a7,7,0,0,1,1.83-1.55,4.42,4.42,0,0,1,2.17-.52,4.8,4.8,0,0,1,4.11,1.82,8.14,8.14,0,0,1,1.37,5,7.41,7.41,0,0,1-1.44,4.72,4.7,4.7,0,0,1-3.9,1.83,5,5,0,0,1-2.39-.6,4.84,4.84,0,0,1-1.78-1.57q.06,1.44.06,2.84v4.66Zm5.47-6.63a3.28,3.28,0,0,0,1.77-.48,3.57,3.57,0,0,0,1.23-1.28,6.6,6.6,0,0,0,.69-1.74,8.31,8.31,0,0,0,.23-2,8.49,8.49,0,0,0-.22-2,6.68,6.68,0,0,0-.67-1.74,3.48,3.48,0,0,0-1.24-1.28,3.37,3.37,0,0,0-1.79-.48,4.19,4.19,0,0,0-1.88.39,3.08,3.08,0,0,0-1.25,1.12,5.2,5.2,0,0,0-.67,1.65,9.42,9.42,0,0,0-.21,2.09,12,12,0,0,0,.2,2.33,5.78,5.78,0,0,0,.65,1.78,2.93,2.93,0,0,0,1.25,1.18A4.29,4.29,0,0,0,995.62,542.23Z"/><path class="cls-4" d="M1010.1,543.43a5.45,5.45,0,0,1-3.08-.88,5.63,5.63,0,0,1-2-2.38,8,8,0,0,1-.7-3.4,8.42,8.42,0,0,1,.4-2.65,6.39,6.39,0,0,1,1.15-2.12,5.23,5.23,0,0,1,1.86-1.41,5.87,5.87,0,0,1,2.47-.51,5.38,5.38,0,0,1,5.12,3.26,8.32,8.32,0,0,1,.66,3.4,8.21,8.21,0,0,1-.68,3.42,5.51,5.51,0,0,1-2,2.38A5.63,5.63,0,0,1,1010.1,543.43Zm.11-1.16a3.77,3.77,0,0,0,2.37-.74,4.22,4.22,0,0,0,1.41-2,8.23,8.23,0,0,0,.44-2.8,6.85,6.85,0,0,0-1.05-4,3.65,3.65,0,0,0-3.21-1.51,3.83,3.83,0,0,0-2.4.76,4.34,4.34,0,0,0-1.45,2,8,8,0,0,0-.46,2.81,6.52,6.52,0,0,0,1.12,3.94A3.75,3.75,0,0,0,1010.2,542.27Z"/><path class="cls-4" d="M1019.79,543.15V530.3h1.27l.2,2a4.81,4.81,0,0,1,1.86-1.62,5.48,5.48,0,0,1,2.51-.59,4.06,4.06,0,0,1,3.26,1.22,5.93,5.93,0,0,1,1,3.89v8h-1.46v-8.62a3.87,3.87,0,0,0-.73-2.46,2.81,2.81,0,0,0-2.19-.75,4.45,4.45,0,0,0-2.85.88,3.77,3.77,0,0,0-1.39,2.27q0,.55,0,1.15v7.54Z"/><path class="cls-4" d="M1038,543.44a8.63,8.63,0,0,1-2.33-.3,6.09,6.09,0,0,1-1.72-.73l.21-1.22a8,8,0,0,0,3.7,1q3.18,0,3.29-2.36a2,2,0,0,0-.64-1.55,7.78,7.78,0,0,0-2.56-1.17l-1.11-.39q-3-.91-3-3.25a3.1,3.1,0,0,1,1.19-2.38,4.72,4.72,0,0,1,3.22-1,9.22,9.22,0,0,1,3.81.8l-.49,1.08a9.56,9.56,0,0,0-3.35-.68,3.39,3.39,0,0,0-2.14.61,2,2,0,0,0-.78,1.64,1.71,1.71,0,0,0,.51,1.33,5.37,5.37,0,0,0,2,.88l.6.21.49.18a6.57,6.57,0,0,1,2.83,1.47,3.23,3.23,0,0,1,.8,2.31,3.17,3.17,0,0,1-1.26,2.61A5.26,5.26,0,0,1,1038,543.44Z"/><path class="cls-4" d="M1051.47,543.43a5.34,5.34,0,0,1-4.22-1.78,7.06,7.06,0,0,1-1.56-4.83,7.37,7.37,0,0,1,1.53-4.82,5,5,0,0,1,4-1.93,4.53,4.53,0,0,1,3.63,1.62,6.48,6.48,0,0,1,1.37,4.34q0,.11,0,.43t0,.45h-8.94a6.15,6.15,0,0,0,1.2,3.92,3.78,3.78,0,0,0,3.09,1.45,7.25,7.25,0,0,0,2.18-.29,11.45,11.45,0,0,0,1.93-.83l.25,1.09A8.22,8.22,0,0,1,1051.47,543.43Zm-4.2-7.7h7.31a5.11,5.11,0,0,0-.93-3.29,3.1,3.1,0,0,0-2.54-1.14,3.27,3.27,0,0,0-2.65,1.22A5.76,5.76,0,0,0,1047.28,535.73Z"/><path class="cls-4" d="M554.52,791.41a5.45,5.45,0,0,1-3.08-.88,5.63,5.63,0,0,1-2-2.38,8,8,0,0,1-.7-3.4,8.42,8.42,0,0,1,.4-2.65,6.39,6.39,0,0,1,1.15-2.12,5.23,5.23,0,0,1,1.86-1.41,5.87,5.87,0,0,1,2.47-.51,5.38,5.38,0,0,1,5.12,3.26,8.32,8.32,0,0,1,.66,3.4,8.21,8.21,0,0,1-.68,3.42,5.51,5.51,0,0,1-2,2.38A5.63,5.63,0,0,1,554.52,791.41Zm.11-1.16a3.77,3.77,0,0,0,2.37-.74,4.22,4.22,0,0,0,1.41-2,8.23,8.23,0,0,0,.44-2.8,6.85,6.85,0,0,0-1.05-4,3.65,3.65,0,0,0-3.21-1.51,3.83,3.83,0,0,0-2.4.76,4.34,4.34,0,0,0-1.45,2,8,8,0,0,0-.46,2.81,6.52,6.52,0,0,0,1.12,3.94A3.75,3.75,0,0,0,554.63,790.25Z"/><path class="cls-4" d="M564.21,796.85V778.29h1.3l.13,1.83a7,7,0,0,1,1.83-1.55,4.42,4.42,0,0,1,2.17-.52,4.8,4.8,0,0,1,4.11,1.82,8.14,8.14,0,0,1,1.37,5,7.41,7.41,0,0,1-1.44,4.72,4.7,4.7,0,0,1-3.9,1.83,5,5,0,0,1-2.39-.6,4.84,4.84,0,0,1-1.78-1.57q.06,1.44.06,2.84v4.66Zm5.47-6.63a3.28,3.28,0,0,0,1.77-.48,3.57,3.57,0,0,0,1.23-1.28,6.6,6.6,0,0,0,.69-1.74,8.31,8.31,0,0,0,.23-2,8.49,8.49,0,0,0-.22-2,6.68,6.68,0,0,0-.67-1.74,3.48,3.48,0,0,0-1.24-1.28,3.37,3.37,0,0,0-1.79-.48,4.19,4.19,0,0,0-1.88.39,3.08,3.08,0,0,0-1.25,1.12,5.2,5.2,0,0,0-.67,1.65,9.42,9.42,0,0,0-.21,2.09,12,12,0,0,0,.2,2.33,5.78,5.78,0,0,0,.65,1.78,2.93,2.93,0,0,0,1.25,1.18A4.29,4.29,0,0,0,569.68,790.22Z"/><path class="cls-4" d="M584.14,791.41a5.34,5.34,0,0,1-4.22-1.78,7.06,7.06,0,0,1-1.56-4.83,7.37,7.37,0,0,1,1.53-4.82,5,5,0,0,1,4-1.93,4.53,4.53,0,0,1,3.63,1.62,6.48,6.48,0,0,1,1.37,4.34q0,.11,0,.43t0,.45h-8.94a6.15,6.15,0,0,0,1.2,3.92,3.78,3.78,0,0,0,3.09,1.45,7.25,7.25,0,0,0,2.18-.29,11.45,11.45,0,0,0,1.93-.83l.25,1.09A8.22,8.22,0,0,1,584.14,791.41Zm-4.2-7.7h7.31a5.11,5.11,0,0,0-.93-3.29,3.1,3.1,0,0,0-2.54-1.14,3.27,3.27,0,0,0-2.65,1.22A5.76,5.76,0,0,0,579.95,783.71Z"/><path class="cls-4" d="M592.71,791.13V778.29H594l.2,2a4.81,4.81,0,0,1,1.86-1.62,5.48,5.48,0,0,1,2.51-.59,4.06,4.06,0,0,1,3.26,1.22,5.93,5.93,0,0,1,1,3.89v8h-1.46v-8.62a3.87,3.87,0,0,0-.73-2.46,2.81,2.81,0,0,0-2.19-.75,4.45,4.45,0,0,0-2.85.88,3.77,3.77,0,0,0-1.39,2.27q0,.55,0,1.15v7.54Z"/><path class="cls-4" d="M610.92,791.42a8.63,8.63,0,0,1-2.33-.3,6.09,6.09,0,0,1-1.72-.73l.21-1.22a8,8,0,0,0,3.7,1q3.18,0,3.29-2.36a2,2,0,0,0-.64-1.55,7.78,7.78,0,0,0-2.56-1.17l-1.11-.39q-3-.91-3-3.25a3.1,3.1,0,0,1,1.19-2.38,4.72,4.72,0,0,1,3.22-1,9.22,9.22,0,0,1,3.81.8l-.49,1.08a9.56,9.56,0,0,0-3.35-.68,3.39,3.39,0,0,0-2.14.61,2,2,0,0,0-.78,1.64,1.71,1.71,0,0,0,.51,1.33,5.37,5.37,0,0,0,2,.88l.6.21.49.18a6.57,6.57,0,0,1,2.83,1.47,3.23,3.23,0,0,1,.8,2.31,3.17,3.17,0,0,1-1.26,2.61A5.26,5.26,0,0,1,610.92,791.42Z"/><path class="cls-4" d="M632,791.13q0-11.31,0-12.84h1.2l.09,2.53a6,6,0,0,1,1.76-1.87,3.9,3.9,0,0,1,2.23-.73,7,7,0,0,1,1,.08l-.11,1.21a5.42,5.42,0,0,0-.89-.07,3.47,3.47,0,0,0-2.74,1.28,4.5,4.5,0,0,0-1.11,3v7.37Z"/><path class="cls-4" d="M646.28,791.41a5.34,5.34,0,0,1-4.22-1.78,7.06,7.06,0,0,1-1.56-4.83A7.37,7.37,0,0,1,642,780a5,5,0,0,1,4-1.93,4.53,4.53,0,0,1,3.63,1.62A6.48,6.48,0,0,1,651,784q0,.11,0,.43t0,.45H642a6.15,6.15,0,0,0,1.2,3.92,3.78,3.78,0,0,0,3.09,1.45,7.25,7.25,0,0,0,2.18-.29,11.45,11.45,0,0,0,1.93-.83l.25,1.09A8.22,8.22,0,0,1,646.28,791.41Zm-4.2-7.7h7.31a5.11,5.11,0,0,0-.93-3.29,3.1,3.1,0,0,0-2.54-1.14,3.27,3.27,0,0,0-2.65,1.22A5.76,5.76,0,0,0,642.09,783.71Z"/><path class="cls-4" d="M663.77,796.85V791q0-1,.06-1.78a4.35,4.35,0,0,1-1.86,1.65,5.41,5.41,0,0,1-2.35.56,5,5,0,0,1-2.92-.86,5.14,5.14,0,0,1-1.83-2.31,8.69,8.69,0,0,1-.6-3.35,9.6,9.6,0,0,1,.6-3.55,5.24,5.24,0,0,1,1.85-2.41,5,5,0,0,1,3-.88,5.1,5.1,0,0,1,4.11,2.17l.09-1.93h1.3v18.48Zm-4.15-6.7q4.05,0,4.11-5.17a11.11,11.11,0,0,0-.22-2.32,5.67,5.67,0,0,0-.69-1.78,3.08,3.08,0,0,0-1.28-1.17,4.31,4.31,0,0,0-1.95-.4,3.42,3.42,0,0,0-1.49.32,3,3,0,0,0-1.08.84,4.89,4.89,0,0,0-.71,1.24,6.68,6.68,0,0,0-.4,1.47,10.28,10.28,0,0,0-.12,1.58,9.58,9.58,0,0,0,.2,2,6.26,6.26,0,0,0,.63,1.71,3.13,3.13,0,0,0,1.2,1.22A3.52,3.52,0,0,0,659.62,790.15Z"/><path class="cls-4" d="M674.41,791.45a7.27,7.27,0,0,1-1.87-.23,5.41,5.41,0,0,1-1.6-.71,3.33,3.33,0,0,1-1.17-1.38,4.8,4.8,0,0,1-.43-2.1v-8.74h1.45v8.78a3.8,3.8,0,0,0,.28,1.55,2.06,2.06,0,0,0,.81,1A3.6,3.6,0,0,0,673,790a6.67,6.67,0,0,0,1.39.13,6.33,6.33,0,0,0,1.38-.13,3.49,3.49,0,0,0,1.11-.46,2.09,2.09,0,0,0,.79-1,3.8,3.8,0,0,0,.28-1.53v-8.78h1.45V787a5.12,5.12,0,0,1-.28,1.76,3.58,3.58,0,0,1-.75,1.27,3.9,3.9,0,0,1-1.13.81,5.3,5.3,0,0,1-1.36.45A8.22,8.22,0,0,1,674.41,791.45Z"/><path class="cls-4" d="M688.75,791.41a5.34,5.34,0,0,1-4.22-1.78A7.06,7.06,0,0,1,683,784.8a7.37,7.37,0,0,1,1.53-4.82,5,5,0,0,1,4-1.93,4.53,4.53,0,0,1,3.63,1.62,6.48,6.48,0,0,1,1.37,4.34q0,.11,0,.43t0,.45H684.5a6.15,6.15,0,0,0,1.2,3.92,3.78,3.78,0,0,0,3.09,1.45A7.25,7.25,0,0,0,691,790a11.45,11.45,0,0,0,1.93-.83l.25,1.09A8.22,8.22,0,0,1,688.75,791.41Zm-4.2-7.7h7.31a5.11,5.11,0,0,0-.93-3.29,3.1,3.1,0,0,0-2.54-1.14,3.27,3.27,0,0,0-2.65,1.22A5.76,5.76,0,0,0,684.55,783.71Z"/><path class="cls-4" d="M701.07,791.42a8.63,8.63,0,0,1-2.33-.3,6.09,6.09,0,0,1-1.72-.73l.21-1.22a8,8,0,0,0,3.7,1q3.18,0,3.29-2.36a2,2,0,0,0-.64-1.55,7.78,7.78,0,0,0-2.56-1.17l-1.11-.39q-3-.91-3-3.25a3.1,3.1,0,0,1,1.19-2.38,4.72,4.72,0,0,1,3.22-1,9.22,9.22,0,0,1,3.81.8l-.49,1.08a9.56,9.56,0,0,0-3.35-.68,3.39,3.39,0,0,0-2.14.61,2,2,0,0,0-.78,1.64,1.71,1.71,0,0,0,.51,1.33,5.37,5.37,0,0,0,2,.88l.6.21.49.18a6.57,6.57,0,0,1,2.83,1.47,3.23,3.23,0,0,1,.8,2.31,3.17,3.17,0,0,1-1.26,2.61A5.26,5.26,0,0,1,701.07,791.42Z"/><path class="cls-4" d="M713,791.4a3.29,3.29,0,0,1-2.37-.73,3.23,3.23,0,0,1-.75-2.38v-8.93H708l.11-.88,1.73-.16.39-2.94,1-.07v3H715v1.07h-3.75V788a2.7,2.7,0,0,0,.45,1.82,2.14,2.14,0,0,0,1.57.46,7.7,7.7,0,0,0,1.8-.27l.06,1.13A12.13,12.13,0,0,1,713,791.4Z"/><path class="cls-4" d="M728,791.41a4.38,4.38,0,0,1-2.91-.91,3.22,3.22,0,0,1-1.09-2.61,3.42,3.42,0,0,1,.43-1.75,3.26,3.26,0,0,1,1.26-1.21,7.44,7.44,0,0,1,1.89-.72,15.42,15.42,0,0,1,2.47-.36l2.23-.15v-1.43a3.21,3.21,0,0,0-.67-2.22,2.79,2.79,0,0,0-2.16-.74,7.78,7.78,0,0,0-3.81,1l-.22-.51q-.17-.39-.24-.6a6.78,6.78,0,0,1,1.9-.79,8.79,8.79,0,0,1,2.3-.32,4.62,4.62,0,0,1,3.32,1,4.85,4.85,0,0,1,1,3.51v8.58H732.6q-.06-.27-.17-1.07t-.11-.82A4.91,4.91,0,0,1,728,791.41Zm0-1.16a4.29,4.29,0,0,0,2.67-.88,4.14,4.14,0,0,0,1.53-2.46v-2.19l-1.7.14a10,10,0,0,0-4,.94,2.3,2.3,0,0,0-1.11,2.11,2.15,2.15,0,0,0,.71,1.76A2.86,2.86,0,0,0,728.08,790.25Z"/><path class="cls-4" d="M738.19,791.13V778.29h1.27l.2,2a4.81,4.81,0,0,1,1.86-1.62,5.48,5.48,0,0,1,2.51-.59,4.06,4.06,0,0,1,3.26,1.22,5.93,5.93,0,0,1,1,3.89v8h-1.46v-8.62a3.87,3.87,0,0,0-.73-2.46,2.81,2.81,0,0,0-2.19-.75,4.45,4.45,0,0,0-2.85.88,3.77,3.77,0,0,0-1.39,2.27q0,.55,0,1.15v7.54Z"/><path class="cls-4" d="M757.5,791.4a4.85,4.85,0,0,1-4-1.78,7.64,7.64,0,0,1-1.44-4.92,7.43,7.43,0,0,1,1.48-4.8,4.77,4.77,0,0,1,3.91-1.85,6,6,0,0,1,2.39.52,3.73,3.73,0,0,1,1.82,1.61v-6.87l1.41-.13v18h-1.21l-.21-1.93a4.28,4.28,0,0,1-1.81,1.65A5.28,5.28,0,0,1,757.5,791.4Zm0-1.15a4.32,4.32,0,0,0,1.91-.4,3.29,3.29,0,0,0,1.31-1.12,5.27,5.27,0,0,0,.73-1.67,8.48,8.48,0,0,0,.24-2.09q0-5.73-4.22-5.73a3.25,3.25,0,0,0-1.76.47,3.4,3.4,0,0,0-1.2,1.28,6.63,6.63,0,0,0-.65,1.75,9.08,9.08,0,0,0-.21,2,10.53,10.53,0,0,0,.13,1.69,6.87,6.87,0,0,0,.42,1.51,4.52,4.52,0,0,0,.73,1.22A3.08,3.08,0,0,0,756,790,3.52,3.52,0,0,0,757.46,790.25Z"/><path class="cls-4" d="M777.61,791.42a8.63,8.63,0,0,1-2.33-.3,6.09,6.09,0,0,1-1.72-.73l.21-1.22a8,8,0,0,0,3.7,1q3.18,0,3.29-2.36a2,2,0,0,0-.64-1.55,7.78,7.78,0,0,0-2.56-1.17l-1.11-.39q-3-.91-3-3.25a3.1,3.1,0,0,1,1.19-2.38,4.72,4.72,0,0,1,3.22-1,9.22,9.22,0,0,1,3.81.8l-.49,1.08a9.56,9.56,0,0,0-3.35-.68,3.39,3.39,0,0,0-2.14.61,2,2,0,0,0-.78,1.64,1.71,1.71,0,0,0,.51,1.33,5.37,5.37,0,0,0,2,.88l.6.21.49.18a6.57,6.57,0,0,1,2.83,1.47,3.23,3.23,0,0,1,.8,2.31,3.17,3.17,0,0,1-1.26,2.61A5.26,5.26,0,0,1,777.61,791.42Z"/><path class="cls-4" d="M791.08,791.41a5.34,5.34,0,0,1-4.22-1.78,7.06,7.06,0,0,1-1.56-4.83,7.37,7.37,0,0,1,1.53-4.82,5,5,0,0,1,4-1.93,4.53,4.53,0,0,1,3.63,1.62,6.48,6.48,0,0,1,1.37,4.34q0,.11,0,.43t0,.45h-8.94a6.15,6.15,0,0,0,1.2,3.92,3.78,3.78,0,0,0,3.09,1.45,7.25,7.25,0,0,0,2.18-.29,11.45,11.45,0,0,0,1.93-.83l.25,1.09A8.22,8.22,0,0,1,791.08,791.41Zm-4.2-7.7h7.31a5.11,5.11,0,0,0-.93-3.29,3.1,3.1,0,0,0-2.54-1.14,3.27,3.27,0,0,0-2.65,1.22A5.76,5.76,0,0,0,786.89,783.71Z"/><path class="cls-4" d="M799.65,791.13V778.29h1.27l.2,2a4.81,4.81,0,0,1,1.86-1.62,5.48,5.48,0,0,1,2.51-.59,4.06,4.06,0,0,1,3.26,1.22,5.93,5.93,0,0,1,1,3.89v8h-1.46v-8.62a3.87,3.87,0,0,0-.73-2.46,2.81,2.81,0,0,0-2.19-.75,4.45,4.45,0,0,0-2.85.88,3.77,3.77,0,0,0-1.39,2.27q0,.55,0,1.15v7.54Z"/><path class="cls-4" d="M819,791.4a4.85,4.85,0,0,1-4-1.78,7.64,7.64,0,0,1-1.44-4.92,7.43,7.43,0,0,1,1.48-4.8,4.77,4.77,0,0,1,3.91-1.85,6,6,0,0,1,2.39.52,3.73,3.73,0,0,1,1.82,1.61v-6.87l1.41-.13v18h-1.21l-.21-1.93a4.28,4.28,0,0,1-1.81,1.65A5.28,5.28,0,0,1,819,791.4Zm0-1.15a4.32,4.32,0,0,0,1.91-.4,3.29,3.29,0,0,0,1.31-1.12,5.27,5.27,0,0,0,.73-1.67,8.48,8.48,0,0,0,.24-2.09q0-5.73-4.22-5.73a3.25,3.25,0,0,0-1.76.47,3.4,3.4,0,0,0-1.2,1.28,6.63,6.63,0,0,0-.65,1.75,9.08,9.08,0,0,0-.21,2,10.53,10.53,0,0,0,.13,1.69,6.87,6.87,0,0,0,.42,1.51,4.52,4.52,0,0,0,.73,1.22,3.08,3.08,0,0,0,1.09.81A3.52,3.52,0,0,0,818.92,790.25Z"/><path class="cls-4" d="M832.68,791.42a8.63,8.63,0,0,1-2.33-.3,6.09,6.09,0,0,1-1.72-.73l.21-1.22a8,8,0,0,0,3.7,1q3.18,0,3.29-2.36a2,2,0,0,0-.64-1.55,7.78,7.78,0,0,0-2.56-1.17l-1.11-.39q-3-.91-3-3.25a3.1,3.1,0,0,1,1.19-2.38,4.72,4.72,0,0,1,3.22-1,9.22,9.22,0,0,1,3.81.8l-.49,1.08a9.56,9.56,0,0,0-3.35-.68,3.39,3.39,0,0,0-2.14.61,2,2,0,0,0-.78,1.64,1.71,1.71,0,0,0,.51,1.33,5.37,5.37,0,0,0,2,.88l.6.21.49.18a6.57,6.57,0,0,1,2.83,1.47,3.23,3.23,0,0,1,.8,2.31,3.17,3.17,0,0,1-1.26,2.61A5.26,5.26,0,0,1,832.68,791.42Z"/><path class="cls-4" d="M852.55,791.41a5.45,5.45,0,0,1-3.08-.88,5.63,5.63,0,0,1-2-2.38,8,8,0,0,1-.7-3.4,8.42,8.42,0,0,1,.4-2.65,6.39,6.39,0,0,1,1.15-2.12,5.23,5.23,0,0,1,1.86-1.41,5.87,5.87,0,0,1,2.47-.51,5.38,5.38,0,0,1,5.12,3.26,8.32,8.32,0,0,1,.66,3.4,8.21,8.21,0,0,1-.68,3.42,5.51,5.51,0,0,1-2,2.38A5.63,5.63,0,0,1,852.55,791.41Zm.11-1.16a3.77,3.77,0,0,0,2.37-.74,4.22,4.22,0,0,0,1.41-2,8.23,8.23,0,0,0,.44-2.8,6.85,6.85,0,0,0-1.05-4,3.65,3.65,0,0,0-3.21-1.51,3.83,3.83,0,0,0-2.4.76,4.34,4.34,0,0,0-1.45,2,8,8,0,0,0-.46,2.81,6.52,6.52,0,0,0,1.12,3.94A3.75,3.75,0,0,0,852.66,790.25Z"/><path class="cls-4" d="M867.77,791.41a4.87,4.87,0,0,1-4.16-2.14l-.15,1.86h-1.22V773.31l1.44-.13v4.32q0,2,0,2.73a4.5,4.5,0,0,1,1.82-1.64,5.2,5.2,0,0,1,2.3-.54,4.87,4.87,0,0,1,4.06,1.86,7.52,7.52,0,0,1,1.46,4.79,9.2,9.2,0,0,1-.6,3.46,5.05,5.05,0,0,1-4.92,3.25Zm.07-1.16a3.64,3.64,0,0,0,1.87-.46,3.17,3.17,0,0,0,1.22-1.27,6.46,6.46,0,0,0,.62-1.73,10,10,0,0,0,.19-2,11.4,11.4,0,0,0-.11-1.63,6.75,6.75,0,0,0-.4-1.5,4.52,4.52,0,0,0-.71-1.25,3.11,3.11,0,0,0-1.11-.83,3.69,3.69,0,0,0-1.56-.32,3.61,3.61,0,0,0-3.1,1.46,6.85,6.85,0,0,0-1.06,4.14,9.59,9.59,0,0,0,.23,2.2,5.21,5.21,0,0,0,.71,1.7,3.2,3.2,0,0,0,1.29,1.13A4.36,4.36,0,0,0,867.84,790.25Z"/><path class="cls-4" d="M874.71,797.58l-.22-1.17h.57a5.16,5.16,0,0,0,1.28-.12,1,1,0,0,0,.66-.53,2.17,2.17,0,0,0,.24-.77q0-.37,0-1.25V778.29h1.46V794a8.4,8.4,0,0,1-.15,1.76,2.18,2.18,0,0,1-.55,1.07,2.09,2.09,0,0,1-1,.57,7.7,7.7,0,0,1-1.72.15Zm2.57-21.93v-2h1.46v2Z"/><path class="cls-4" d="M888.06,791.41a5.34,5.34,0,0,1-4.22-1.78,7.06,7.06,0,0,1-1.56-4.83A7.37,7.37,0,0,1,883.8,780a5,5,0,0,1,4-1.93,4.53,4.53,0,0,1,3.63,1.62,6.48,6.48,0,0,1,1.37,4.34q0,.11,0,.43t0,.45H883.8a6.15,6.15,0,0,0,1.2,3.92,3.78,3.78,0,0,0,3.09,1.45,7.25,7.25,0,0,0,2.18-.29,11.45,11.45,0,0,0,1.93-.83l.25,1.09A8.22,8.22,0,0,1,888.06,791.41Zm-4.2-7.7h7.31a5.11,5.11,0,0,0-.93-3.29,3.1,3.1,0,0,0-2.54-1.14,3.27,3.27,0,0,0-2.65,1.22A5.76,5.76,0,0,0,883.86,783.71Z"/><path class="cls-4" d="M902,791.41a5.69,5.69,0,0,1-3.23-.91,5.6,5.6,0,0,1-2-2.38,7.83,7.83,0,0,1-.67-3.28,8.32,8.32,0,0,1,.4-2.6,7,7,0,0,1,1.13-2.16,5.13,5.13,0,0,1,1.89-1.48,6,6,0,0,1,2.57-.54,7.11,7.11,0,0,1,1.85.25,4,4,0,0,1,1.37.59l-.46,1.09a5.73,5.73,0,0,0-2.86-.68,3.8,3.8,0,0,0-3.18,1.52,6.41,6.41,0,0,0-1.17,4,6.1,6.1,0,0,0,1.17,3.88,3.83,3.83,0,0,0,3.18,1.48,7.62,7.62,0,0,0,3-.7l.22,1a4.11,4.11,0,0,1-1.43.64A7,7,0,0,1,902,791.41Z"/><path class="cls-4" d="M912.51,791.4a3.29,3.29,0,0,1-2.37-.73,3.23,3.23,0,0,1-.75-2.38v-8.93h-1.82l.11-.88,1.73-.16.39-2.94,1-.07v3h3.75v1.07h-3.75V788a2.7,2.7,0,0,0,.45,1.82,2.14,2.14,0,0,0,1.57.46,7.7,7.7,0,0,0,1.8-.27l.06,1.13A12.13,12.13,0,0,1,912.51,791.4Z"/><polyline class="cls-2" points="318.56 240.15 318.56 220.15 586.08 220.15 586.08 240.15"/><line class="cls-2" x1="452.32" y1="220.15" x2="452.32" y2="200.15"/></g></g></svg>